<svg id="svg" version="1.1" xmlns="http://www.w3.org/2000/svg" xmlns:xlink="http://www.w3.org/1999/xlink" width="400" height="540.2597402597403" viewBox="0, 0, 400,540.2597402597403"><g id="svgg"><path id="path0" d="M132.400 4.198 C 132.400 4.602,132.000 4.800,131.186 4.800 C 130.518 4.800,129.528 5.091,128.986 5.446 C 128.444 5.801,128.000 5.947,128.000 5.770 C 128.000 5.592,127.772 5.760,127.492 6.141 C 127.213 6.523,126.595 6.865,126.120 6.901 C 125.644 6.937,125.264 7.064,125.275 7.183 C 125.357 8.090,125.119 8.455,124.579 8.247 C 124.223 8.111,124.063 8.178,124.203 8.405 C 124.337 8.622,124.167 8.800,123.824 8.800 C 123.481 8.800,123.200 9.070,123.200 9.400 C 123.200 9.730,123.007 10.000,122.771 10.000 C 122.073 10.000,121.200 11.082,121.200 11.948 C 121.200 12.391,121.022 12.863,120.805 12.997 C 120.570 13.142,120.516 12.963,120.673 12.555 C 120.851 12.089,120.785 11.962,120.468 12.158 C 120.211 12.317,120.000 12.698,120.000 13.004 C 120.000 13.310,119.775 13.704,119.500 13.880 C 118.841 14.302,118.000 15.830,118.000 16.607 C 118.000 16.947,117.730 17.329,117.400 17.455 C 117.070 17.582,116.800 18.127,116.800 18.666 C 116.800 19.259,116.631 19.543,116.373 19.383 C 116.139 19.238,115.980 19.363,116.021 19.660 C 116.269 21.469,115.947 24.400,115.500 24.400 C 115.105 24.400,115.000 30.466,115.000 53.400 C 115.000 76.333,115.105 82.400,115.500 82.400 C 115.837 82.400,116.000 83.091,116.000 84.520 C 116.000 85.686,116.189 86.829,116.420 87.060 C 116.651 87.291,116.876 88.120,116.920 88.902 C 116.964 89.684,117.116 90.252,117.258 90.164 C 117.576 89.968,118.000 91.011,118.000 91.990 C 118.000 92.388,118.281 92.822,118.625 92.954 C 118.981 93.091,119.125 93.398,118.960 93.665 C 118.763 93.983,118.885 94.053,119.334 93.881 C 119.816 93.696,120.000 93.842,120.000 94.413 C 120.000 94.846,120.270 95.200,120.600 95.200 C 120.930 95.200,121.200 95.549,121.200 95.976 C 121.200 96.403,121.408 96.881,121.662 97.038 C 121.967 97.227,122.014 97.146,121.800 96.800 C 121.590 96.461,121.633 96.373,121.921 96.551 C 122.165 96.702,122.273 97.066,122.160 97.360 C 122.039 97.675,122.310 97.988,122.818 98.121 C 123.292 98.245,123.585 98.501,123.468 98.690 C 123.351 98.879,123.635 99.062,124.098 99.097 C 124.562 99.132,125.354 99.641,125.858 100.228 C 126.448 100.915,127.006 101.206,127.424 101.046 C 127.858 100.879,128.141 101.051,128.275 101.564 C 128.429 102.154,128.754 102.297,129.675 102.180 C 130.539 102.071,130.819 102.174,130.674 102.551 C 130.530 102.927,130.975 103.092,132.270 103.141 C 133.258 103.178,134.331 103.474,134.656 103.799 C 135.497 104.639,262.265 104.512,262.090 103.670 C 262.030 103.379,262.168 103.256,262.397 103.398 C 262.626 103.539,262.709 103.823,262.583 104.028 C 262.456 104.232,262.543 104.400,262.776 104.400 C 263.009 104.400,263.200 104.130,263.200 103.800 C 263.200 103.279,265.649 102.892,267.300 103.153 C 267.465 103.179,267.600 103.020,267.600 102.800 C 267.600 102.580,268.050 102.400,268.600 102.400 C 269.222 102.400,269.600 102.173,269.600 101.800 C 269.600 101.427,269.978 101.200,270.600 101.200 C 271.150 101.200,271.600 101.032,271.600 100.827 C 271.600 100.622,271.970 100.336,272.423 100.193 C 272.876 100.049,273.396 99.537,273.579 99.054 C 273.763 98.572,274.294 98.148,274.761 98.113 C 275.227 98.078,275.876 97.781,276.204 97.453 C 276.910 96.747,276.995 96.232,276.338 96.638 C 276.052 96.815,275.985 96.748,276.162 96.462 C 276.319 96.208,276.752 95.999,277.124 95.997 C 277.782 95.994,278.800 94.368,278.800 93.320 C 278.800 93.034,279.115 92.786,279.500 92.768 C 279.894 92.751,279.987 92.651,279.714 92.540 C 279.119 92.299,279.920 90.800,280.644 90.800 C 280.893 90.800,281.095 90.485,281.093 90.100 C 281.085 87.928,281.212 87.400,281.600 88.000 C 281.878 88.430,281.989 88.003,281.994 86.500 C 281.998 85.036,282.151 84.430,282.500 84.500 C 282.896 84.579,283.015 78.136,283.072 53.500 C 283.135 26.755,283.065 22.400,282.572 22.400 C 282.169 22.400,282.000 21.916,282.000 20.762 C 282.000 19.716,281.682 18.677,281.121 17.890 C 280.638 17.211,280.458 16.789,280.721 16.951 C 280.985 17.114,281.200 17.051,281.200 16.811 C 281.200 16.571,280.930 16.271,280.600 16.145 C 280.270 16.018,280.000 15.653,280.000 15.334 C 280.000 15.014,279.832 14.856,279.628 14.983 C 279.423 15.109,279.151 15.044,279.023 14.837 C 278.895 14.630,279.107 14.378,279.495 14.277 C 280.053 14.131,280.068 14.083,279.568 14.046 C 279.220 14.021,278.694 13.550,278.400 13.000 C 278.106 12.450,277.625 12.000,277.332 12.000 C 277.040 12.000,276.800 11.730,276.800 11.400 C 276.800 11.070,276.530 10.800,276.200 10.800 C 275.870 10.800,275.600 10.620,275.600 10.400 C 275.600 10.180,275.330 10.000,275.000 10.000 C 274.670 10.000,274.442 9.865,274.493 9.700 C 274.652 9.186,273.079 7.628,272.661 7.886 C 272.421 8.034,272.373 7.848,272.538 7.417 C 272.757 6.846,272.651 6.746,272.005 6.915 C 271.513 7.043,271.061 6.881,270.848 6.500 C 270.655 6.155,270.101 5.844,269.617 5.809 C 269.132 5.773,268.595 5.516,268.423 5.238 C 268.251 4.959,267.991 4.767,267.844 4.810 C 267.195 4.999,265.944 4.414,266.181 4.032 C 266.363 3.736,246.359 3.607,199.421 3.602 C 139.998 3.596,132.400 3.664,132.400 4.198 M114.110 128.850 C 113.867 129.093,112.541 129.322,111.163 129.359 C 109.602 129.400,108.597 129.609,108.496 129.913 C 108.406 130.181,107.718 130.400,106.967 130.400 C 106.143 130.400,105.598 130.599,105.594 130.900 C 105.589 131.266,105.495 131.254,105.242 130.855 C 105.001 130.474,104.850 130.450,104.742 130.773 C 104.658 131.027,104.141 131.264,103.594 131.299 C 103.047 131.333,102.468 131.550,102.306 131.781 C 102.117 132.051,102.010 132.014,102.006 131.676 C 102.003 131.388,101.817 131.266,101.593 131.404 C 101.370 131.542,101.291 131.823,101.417 132.028 C 101.544 132.232,101.001 132.400,100.211 132.400 C 99.303 132.400,98.690 132.621,98.545 133.000 C 98.418 133.330,97.894 133.600,97.381 133.600 C 96.867 133.600,96.336 133.780,96.200 134.000 C 96.064 134.220,95.593 134.400,95.153 134.400 C 94.713 134.400,94.461 134.575,94.593 134.788 C 94.725 135.002,94.330 135.296,93.716 135.442 C 93.102 135.588,92.330 135.931,92.000 136.204 C 91.670 136.477,91.084 136.649,90.698 136.585 C 90.312 136.522,90.085 136.614,90.194 136.790 C 90.486 137.262,89.506 137.914,88.700 137.784 C 88.310 137.721,88.000 137.921,88.000 138.235 C 88.000 138.546,87.730 138.800,87.400 138.800 C 87.070 138.800,86.800 139.045,86.800 139.345 C 86.800 139.710,86.471 139.826,85.800 139.698 C 85.067 139.558,84.800 139.679,84.800 140.153 C 84.800 140.509,84.572 140.800,84.293 140.800 C 84.014 140.800,83.488 141.290,83.124 141.890 C 82.713 142.567,82.110 142.984,81.531 142.990 C 80.902 142.997,80.617 143.222,80.653 143.684 C 80.682 144.061,80.592 144.356,80.453 144.341 C 79.754 144.265,78.400 144.953,78.400 145.385 C 78.400 146.067,77.002 147.268,76.634 146.901 C 76.469 146.735,76.370 146.780,76.414 147.000 C 76.617 148.008,76.365 148.472,75.743 148.234 C 75.169 148.013,75.157 148.068,75.643 148.668 C 75.950 149.045,75.999 149.233,75.753 149.086 C 75.197 148.753,73.887 150.134,74.299 150.619 C 74.465 150.814,74.250 150.710,73.823 150.387 C 73.396 150.064,73.169 150.005,73.319 150.255 C 73.469 150.505,73.323 150.932,72.996 151.204 C 72.668 151.476,72.400 152.036,72.400 152.449 C 72.400 152.862,72.130 153.200,71.800 153.200 C 71.470 153.200,71.200 153.440,71.200 153.732 C 71.200 154.025,70.759 154.501,70.219 154.790 C 69.680 155.078,69.251 155.424,69.266 155.557 C 69.380 156.531,69.108 157.200,68.600 157.200 C 68.261 157.200,68.000 157.558,68.000 158.024 C 68.000 158.551,67.831 158.743,67.532 158.558 C 67.216 158.363,67.148 158.488,67.324 158.945 C 67.486 159.369,67.288 159.875,66.792 160.300 C 66.356 160.673,66.000 161.233,66.000 161.545 C 66.000 161.857,65.685 162.370,65.300 162.686 C 64.915 163.001,64.808 163.156,65.063 163.029 C 65.413 162.855,65.413 163.042,65.063 163.796 C 64.808 164.345,64.465 164.795,64.300 164.797 C 64.135 164.799,64.000 165.250,64.000 165.800 C 64.000 166.422,63.773 166.800,63.400 166.800 C 62.988 166.800,62.800 167.213,62.800 168.120 C 62.800 168.846,62.635 169.611,62.434 169.820 C 62.232 170.029,62.003 170.650,61.924 171.200 C 61.846 171.750,61.560 172.155,61.291 172.100 C 60.979 172.037,60.800 172.500,60.800 173.367 C 60.800 174.118,60.601 174.800,60.358 174.881 C 59.979 175.007,59.788 175.786,59.520 178.300 C 59.491 178.575,59.317 178.800,59.133 178.800 C 58.950 178.800,58.800 180.135,58.800 181.767 C 58.800 183.784,58.640 184.787,58.300 184.900 C 57.479 185.174,57.384 388.800,58.205 388.800 C 58.532 388.800,58.800 389.070,58.800 389.400 C 58.800 389.730,59.081 390.000,59.424 390.000 C 59.767 390.000,59.936 390.180,59.800 390.400 C 59.664 390.620,59.743 390.800,59.976 390.800 C 60.209 390.800,60.418 390.575,60.440 390.300 C 60.462 390.025,60.603 390.243,60.754 390.785 C 60.915 391.360,61.440 391.885,62.015 392.046 C 62.557 392.197,62.775 392.338,62.500 392.360 C 62.225 392.382,62.000 392.591,62.000 392.824 C 62.000 393.057,62.135 393.178,62.300 393.094 C 62.692 392.894,65.192 395.475,64.894 395.772 C 64.769 395.898,64.862 396.000,65.100 396.000 C 65.338 396.000,65.624 395.775,65.735 395.500 C 65.846 395.225,65.951 395.495,65.968 396.100 C 65.986 396.705,66.140 397.155,66.311 397.100 C 66.887 396.915,69.594 399.949,69.372 400.530 C 69.252 400.842,69.446 401.209,69.802 401.346 C 70.159 401.482,70.339 401.776,70.202 401.997 C 70.065 402.219,70.128 402.400,70.343 402.400 C 70.558 402.400,70.824 402.175,70.935 401.900 C 71.046 401.625,71.151 401.895,71.168 402.500 C 71.188 403.197,71.420 403.600,71.800 403.600 C 72.347 403.600,72.582 404.085,72.440 404.921 C 72.365 405.367,73.456 406.411,73.720 406.147 C 73.901 405.965,74.603 406.935,74.772 407.600 C 75.192 409.257,75.377 409.600,75.847 409.600 C 76.176 409.600,76.400 410.022,76.400 410.643 C 76.400 411.405,76.561 411.624,77.000 411.455 C 77.370 411.313,77.600 411.457,77.600 411.830 C 77.600 412.163,78.050 412.920,78.600 413.513 C 79.150 414.107,79.600 415.007,79.600 415.515 C 79.600 416.023,80.050 416.855,80.600 417.365 C 81.150 417.875,81.600 418.571,81.600 418.913 C 81.600 419.254,81.735 419.593,81.900 419.667 C 82.454 419.913,84.038 423.215,83.792 423.613 C 83.659 423.829,83.831 424.114,84.175 424.246 C 84.519 424.378,84.800 424.916,84.800 425.443 C 84.800 425.984,85.037 426.400,85.345 426.400 C 85.710 426.400,85.826 426.729,85.698 427.400 C 85.558 428.133,85.679 428.400,86.153 428.400 C 86.579 428.400,86.800 428.747,86.800 429.416 C 86.800 430.505,88.115 433.377,88.811 433.807 C 89.043 433.950,89.123 434.412,88.989 434.834 C 88.690 435.776,89.663 435.880,90.543 435.000 C 90.873 434.670,91.516 434.400,91.971 434.400 C 92.427 434.400,92.800 434.220,92.800 434.000 C 92.800 433.780,93.531 433.600,94.424 433.600 C 95.317 433.600,95.949 433.440,95.828 433.245 C 95.557 432.807,96.574 431.908,96.934 432.268 C 97.078 432.411,97.511 432.252,97.898 431.914 C 98.284 431.576,98.935 431.354,99.345 431.421 C 99.796 431.494,100.165 431.256,100.279 430.818 C 100.406 430.334,100.723 430.159,101.235 430.293 C 101.656 430.403,102.000 430.307,102.000 430.078 C 102.000 429.850,102.542 429.545,103.203 429.399 C 103.865 429.254,104.305 428.970,104.180 428.767 C 103.951 428.398,104.994 428.244,106.745 428.390 C 107.280 428.435,107.584 428.298,107.446 428.074 C 107.135 427.571,109.883 426.198,111.200 426.199 C 111.750 426.200,112.398 425.947,112.640 425.637 C 112.883 425.328,113.633 425.091,114.308 425.110 C 115.024 425.130,115.626 424.909,115.753 424.579 C 115.872 424.268,116.212 424.106,116.508 424.220 C 116.804 424.334,117.447 424.079,117.937 423.654 C 118.481 423.183,119.154 422.967,119.664 423.101 C 120.199 423.241,120.634 423.082,120.870 422.660 C 121.074 422.296,121.734 422.000,122.340 422.000 C 122.945 422.000,123.649 421.791,123.905 421.535 C 124.161 421.279,125.178 421.100,126.164 421.137 C 127.397 421.184,128.062 421.017,128.293 420.605 C 128.478 420.274,129.163 419.928,129.815 419.836 C 130.467 419.743,131.540 419.500,132.200 419.295 C 132.860 419.090,133.635 419.004,133.923 419.103 C 134.211 419.201,134.777 418.983,135.182 418.617 C 135.605 418.234,136.618 417.941,137.565 417.928 C 138.472 417.916,139.345 417.673,139.507 417.389 C 139.668 417.105,140.610 416.824,141.600 416.766 C 142.590 416.707,143.634 416.481,143.920 416.264 C 144.206 416.046,145.325 415.880,146.407 415.894 C 147.542 415.909,148.337 415.748,148.287 415.513 C 148.182 415.021,148.992 414.864,152.400 414.714 C 153.830 414.651,155.118 414.436,155.263 414.236 C 155.408 414.036,156.809 413.856,158.378 413.836 C 160.295 413.812,161.338 413.625,161.560 413.265 C 161.802 412.873,163.080 412.721,166.323 412.698 C 169.273 412.678,170.730 412.522,170.678 412.234 C 170.624 411.935,173.379 411.766,179.500 411.692 C 184.978 411.626,188.400 411.434,188.400 411.192 C 188.400 410.958,190.329 410.800,193.200 410.800 C 196.323 410.800,198.000 410.949,198.000 411.225 C 198.000 411.459,198.315 411.618,198.700 411.579 C 202.108 411.232,215.615 411.672,216.088 412.145 C 216.387 412.444,217.255 412.686,218.016 412.682 C 222.728 412.657,226.386 412.841,226.300 413.100 C 226.160 413.519,226.673 413.624,227.436 413.331 C 227.791 413.195,228.202 413.280,228.351 413.521 C 228.500 413.762,229.530 413.938,230.641 413.913 C 231.752 413.887,232.917 414.027,233.230 414.223 C 233.923 414.656,233.979 414.663,237.100 414.739 C 238.948 414.784,239.600 414.946,239.600 415.361 C 239.600 415.782,240.207 415.917,242.043 415.906 C 243.555 415.896,244.601 416.077,244.788 416.381 C 244.955 416.651,245.521 416.835,246.046 416.791 C 248.346 416.599,250.000 416.820,250.000 417.322 C 250.000 417.687,250.741 417.864,252.471 417.913 C 253.971 417.955,255.065 418.183,255.256 418.491 C 255.429 418.771,256.322 419.030,257.241 419.067 C 258.160 419.103,259.042 419.344,259.201 419.602 C 259.361 419.860,260.011 420.036,260.646 419.993 C 263.089 419.828,263.980 419.987,263.764 420.549 C 263.605 420.964,264.021 421.107,265.473 421.136 C 266.528 421.157,267.453 421.360,267.529 421.587 C 267.605 421.814,268.636 422.000,269.821 422.000 C 271.571 422.000,271.932 422.112,271.745 422.600 C 271.597 422.985,271.753 423.200,272.181 423.200 C 272.547 423.200,272.736 423.020,272.600 422.800 C 272.464 422.580,272.543 422.400,272.776 422.400 C 273.009 422.400,273.200 422.580,273.200 422.800 C 273.200 423.020,273.661 423.200,274.224 423.200 C 274.787 423.200,275.149 423.359,275.028 423.554 C 274.737 424.025,276.620 424.363,278.386 424.157 C 279.164 424.067,279.575 424.099,279.300 424.230 C 278.285 424.711,278.846 425.200,280.413 425.200 C 281.360 425.200,282.107 425.413,282.223 425.716 C 282.332 425.999,282.989 426.275,283.684 426.328 C 284.378 426.381,285.140 426.584,285.375 426.779 C 285.611 426.975,286.432 427.194,287.202 427.267 C 287.971 427.340,288.570 427.580,288.533 427.800 C 288.497 428.020,289.097 428.235,289.867 428.279 C 290.636 428.322,291.488 428.541,291.760 428.767 C 292.031 428.992,292.840 429.221,293.557 429.275 C 294.274 429.330,294.965 429.543,295.092 429.749 C 295.226 429.966,295.103 429.987,294.800 429.800 C 294.454 429.586,294.373 429.633,294.562 429.938 C 294.719 430.192,295.472 430.400,296.236 430.400 C 297.034 430.400,297.713 430.630,297.833 430.941 C 297.954 431.258,298.419 431.409,298.957 431.306 C 299.470 431.208,300.153 431.410,300.508 431.765 C 301.265 432.522,301.769 432.603,301.347 431.900 C 301.115 431.514,301.178 431.505,301.623 431.862 C 301.940 432.116,302.650 432.390,303.200 432.471 C 303.759 432.554,304.152 432.848,304.090 433.140 C 304.020 433.472,304.236 433.580,304.690 433.439 C 305.080 433.318,305.670 433.391,306.000 433.603 C 306.330 433.815,306.420 434.018,306.200 434.054 C 305.980 434.090,306.610 434.228,307.600 434.360 C 308.704 434.507,309.363 434.788,309.304 435.088 C 309.243 435.401,309.688 435.557,310.549 435.525 C 312.002 435.470,312.519 434.154,313.070 429.100 C 313.213 427.786,313.459 427.200,313.867 427.200 C 314.234 427.200,314.430 426.860,314.384 426.300 C 314.242 424.541,314.406 423.556,314.800 423.800 C 315.038 423.947,315.200 423.471,315.200 422.624 C 315.200 421.625,315.379 421.200,315.800 421.200 C 316.197 421.200,316.400 420.803,316.400 420.024 C 316.400 419.377,316.580 418.736,316.800 418.600 C 317.020 418.464,317.200 418.003,317.200 417.576 C 317.200 417.149,317.462 416.800,317.781 416.800 C 318.128 416.800,318.347 416.438,318.325 415.900 C 318.253 414.185,318.402 413.600,318.887 413.700 C 319.161 413.756,319.488 413.187,319.635 412.400 C 319.778 411.630,319.918 411.133,319.947 411.296 C 319.976 411.459,320.343 411.298,320.763 410.939 C 321.256 410.517,321.464 409.940,321.349 409.311 C 321.239 408.699,321.328 408.432,321.591 408.594 C 321.833 408.744,322.113 408.336,322.255 407.627 C 322.396 406.920,322.751 406.400,323.093 406.400 C 323.432 406.400,323.595 406.164,323.474 405.850 C 323.344 405.509,323.518 405.319,323.932 405.350 C 324.381 405.383,324.642 405.036,324.727 404.291 C 324.801 403.652,325.272 402.909,325.840 402.537 C 326.382 402.182,326.732 401.798,326.618 401.684 C 326.504 401.571,326.781 400.878,327.233 400.146 C 327.686 399.414,327.940 398.586,327.798 398.307 C 327.657 398.028,327.788 398.100,328.090 398.466 C 328.591 399.075,328.705 399.034,329.404 397.995 C 329.824 397.369,330.310 396.945,330.484 397.052 C 330.658 397.159,330.800 396.787,330.800 396.224 C 330.800 395.590,331.024 395.200,331.387 395.200 C 331.745 395.200,331.885 394.965,331.745 394.600 C 331.599 394.220,331.750 394.000,332.157 394.000 C 332.511 394.000,332.800 393.730,332.800 393.400 C 332.800 393.070,332.942 392.800,333.117 392.800 C 333.291 392.800,334.146 392.126,335.017 391.302 C 335.887 390.479,336.748 389.853,336.930 389.912 C 337.111 389.971,337.145 389.834,337.004 389.607 C 336.864 389.380,337.031 389.086,337.376 388.954 C 338.112 388.671,338.353 186.591,337.618 186.332 C 337.411 186.260,337.199 184.623,337.147 182.696 C 337.095 180.769,336.925 179.398,336.770 179.649 C 336.402 180.243,335.998 178.983,335.924 177.015 C 335.893 176.195,335.667 175.447,335.423 175.353 C 335.175 175.258,335.018 174.462,335.069 173.556 C 335.141 172.277,335.036 171.977,334.580 172.152 C 334.173 172.309,334.000 172.089,334.000 171.416 C 334.000 170.889,333.734 170.191,333.409 169.866 C 333.084 169.541,332.776 168.719,332.724 168.038 C 332.672 167.357,332.488 166.800,332.315 166.800 C 332.142 166.800,332.000 166.434,332.000 165.987 C 332.000 165.541,331.730 165.071,331.400 164.945 C 331.054 164.812,330.800 164.214,330.800 163.534 C 330.800 162.884,330.632 162.456,330.427 162.583 C 330.222 162.710,329.997 162.316,329.927 161.707 C 329.856 161.083,329.582 160.644,329.300 160.700 C 329.025 160.755,328.800 160.530,328.800 160.200 C 328.800 159.870,328.530 159.600,328.200 159.600 C 327.648 159.600,327.438 159.024,327.497 157.673 C 327.510 157.382,327.277 157.238,326.981 157.352 C 326.633 157.485,326.520 157.353,326.663 156.980 C 326.801 156.622,326.640 156.400,326.243 156.400 C 325.824 156.400,325.600 156.052,325.600 155.400 C 325.600 154.787,325.372 154.400,325.013 154.400 C 324.628 154.400,324.514 154.169,324.682 153.731 C 324.877 153.223,324.777 153.123,324.269 153.318 C 323.662 153.551,323.411 153.195,323.553 152.300 C 323.579 152.135,323.407 152.000,323.171 152.000 C 322.492 152.000,321.557 150.884,321.490 149.994 C 321.453 149.510,321.220 149.260,320.914 149.378 C 320.599 149.498,320.400 149.260,320.400 148.764 C 320.400 148.318,320.220 148.064,320.000 148.200 C 319.780 148.336,319.600 148.179,319.600 147.851 C 319.600 147.522,319.237 147.139,318.794 146.998 C 318.351 146.857,318.092 146.575,318.218 146.371 C 318.344 146.167,318.082 146.000,317.636 146.000 C 317.080 146.000,316.897 145.812,317.055 145.400 C 317.216 144.982,317.026 144.800,316.429 144.800 C 315.583 144.800,312.923 142.480,313.106 141.900 C 313.158 141.735,313.065 141.621,312.900 141.647 C 312.103 141.773,311.578 141.560,311.800 141.200 C 311.938 140.976,311.627 140.800,311.091 140.800 C 310.489 140.800,309.943 140.441,309.617 139.832 C 309.332 139.299,308.877 138.949,308.606 139.053 C 308.334 139.157,307.441 138.590,306.619 137.793 C 305.778 136.976,304.880 136.437,304.563 136.559 C 304.219 136.691,303.988 136.508,303.968 136.087 C 303.950 135.687,303.854 135.605,303.739 135.890 C 303.588 136.262,303.324 136.237,302.638 135.788 C 302.142 135.463,301.606 135.327,301.447 135.486 C 301.288 135.645,301.288 135.437,301.446 135.024 C 301.686 134.398,301.589 134.310,300.867 134.499 C 300.298 134.647,299.871 134.498,299.629 134.066 C 299.426 133.703,299.133 133.534,298.977 133.689 C 298.575 134.092,297.128 133.239,297.419 132.770 C 297.551 132.556,297.511 132.406,297.330 132.437 C 296.020 132.665,294.014 132.331,294.100 131.900 C 294.165 131.573,293.693 131.400,292.733 131.400 C 291.927 131.400,291.117 131.236,290.933 131.036 C 290.736 130.820,290.829 130.805,291.162 130.998 C 291.540 131.217,291.630 131.172,291.438 130.862 C 291.280 130.606,290.202 130.400,289.025 130.400 C 287.647 130.400,286.727 130.194,286.413 129.815 C 286.074 129.407,285.183 129.244,283.464 129.277 C 281.785 129.308,281.032 129.175,281.101 128.860 C 281.242 128.209,114.761 128.199,114.110 128.850 M124.400 208.400 C 123.867 208.745,123.867 208.795,124.400 208.855 C 124.730 208.892,125.180 208.964,125.400 209.015 C 125.620 209.066,126.115 209.128,126.500 209.154 C 126.885 209.179,127.200 209.460,127.200 209.777 C 127.200 210.133,127.498 210.297,127.977 210.204 C 128.554 210.093,128.690 210.220,128.507 210.697 C 128.328 211.166,128.433 211.273,128.897 211.095 C 129.271 210.951,129.628 211.096,129.762 211.446 C 129.913 211.840,129.823 211.947,129.495 211.762 C 129.223 211.608,129.397 211.869,129.883 212.341 C 130.369 212.814,130.909 213.201,131.083 213.203 C 131.635 213.209,132.398 215.195,131.862 215.232 C 131.608 215.249,131.667 215.368,131.993 215.496 C 132.971 215.880,133.600 216.693,133.600 217.571 C 133.600 218.056,133.859 218.400,134.225 218.400 C 134.595 218.400,134.807 218.686,134.743 219.100 C 134.610 219.973,135.621 221.600,136.296 221.600 C 136.573 221.600,136.800 222.061,136.800 222.624 C 136.800 223.204,136.973 223.540,137.200 223.400 C 137.420 223.264,137.600 223.523,137.600 223.976 C 137.600 224.429,137.600 224.890,137.600 225.000 C 137.600 225.386,139.205 226.800,139.643 226.800 C 139.917 226.800,139.990 227.184,139.836 227.800 C 139.651 228.538,139.744 228.800,140.192 228.800 C 140.527 228.800,140.822 229.070,140.850 229.400 C 140.946 230.553,141.003 230.736,141.364 231.067 C 141.580 231.264,141.597 231.156,141.405 230.800 C 141.162 230.348,141.201 230.309,141.562 230.640 C 141.825 230.883,142.070 231.513,142.106 232.040 C 142.176 233.068,142.872 234.000,143.571 234.000 C 143.807 234.000,144.000 234.559,144.000 235.243 C 144.000 236.138,144.155 236.426,144.555 236.273 C 144.944 236.123,145.049 236.290,144.908 236.830 C 144.794 237.268,144.910 237.600,145.177 237.600 C 145.436 237.600,145.545 237.765,145.421 237.966 C 145.297 238.167,145.384 238.395,145.615 238.472 C 145.846 238.549,146.066 239.014,146.103 239.506 C 146.140 239.998,146.402 240.400,146.685 240.400 C 146.968 240.400,147.200 240.850,147.200 241.400 C 147.200 241.950,147.380 242.400,147.600 242.400 C 147.820 242.400,148.000 242.861,148.000 243.424 C 148.000 244.009,148.172 244.341,148.403 244.198 C 148.624 244.061,148.922 244.276,149.065 244.675 C 149.208 245.074,149.517 245.648,149.753 245.950 C 149.988 246.253,150.127 247.018,150.060 247.650 C 149.973 248.481,150.114 248.800,150.570 248.800 C 150.975 248.800,151.200 249.157,151.200 249.800 C 151.200 250.422,151.427 250.800,151.800 250.800 C 152.348 250.800,152.626 251.990,152.430 253.500 C 152.394 253.775,152.553 254.000,152.782 254.000 C 153.012 254.000,153.200 254.469,153.200 255.043 C 153.200 255.805,153.361 256.024,153.800 255.855 C 154.157 255.718,154.420 255.863,154.450 256.213 C 154.558 257.476,154.615 257.639,155.048 257.915 C 155.294 258.072,155.474 258.830,155.448 259.600 C 155.416 260.526,155.569 260.966,155.900 260.900 C 156.367 260.807,156.581 261.535,156.430 262.700 C 156.394 262.975,156.563 263.200,156.806 263.200 C 157.049 263.200,157.136 263.020,157.000 262.800 C 156.864 262.580,156.943 262.400,157.176 262.400 C 157.419 262.400,157.600 263.266,157.600 264.424 C 157.600 265.671,157.753 266.352,158.000 266.200 C 158.227 266.059,158.400 266.400,158.400 266.989 C 158.400 267.559,158.670 268.129,159.000 268.255 C 159.342 268.387,159.600 268.983,159.600 269.643 C 159.600 270.285,159.822 270.814,160.100 270.832 C 160.455 270.854,160.442 270.926,160.055 271.080 C 159.622 271.252,159.614 271.361,160.017 271.610 C 160.296 271.783,160.508 272.466,160.490 273.130 C 160.470 273.833,160.694 274.427,161.028 274.555 C 161.342 274.676,161.600 275.231,161.600 275.787 C 161.600 276.344,161.772 276.800,161.982 276.800 C 162.192 276.800,162.482 277.432,162.627 278.204 C 162.772 278.977,163.050 279.707,163.245 279.828 C 163.440 279.949,163.600 280.667,163.600 281.424 C 163.600 282.380,163.783 282.800,164.200 282.800 C 164.661 282.800,164.800 283.311,164.800 285.000 C 164.800 286.545,164.956 287.200,165.323 287.200 C 165.650 287.200,165.816 287.629,165.766 288.347 C 165.723 288.978,165.864 289.743,166.081 290.047 C 166.384 290.472,166.421 290.433,166.242 289.879 C 166.106 289.457,166.173 289.260,166.405 289.403 C 166.622 289.537,166.800 290.449,166.800 291.429 C 166.800 292.409,166.970 293.523,167.178 293.905 C 167.386 294.287,167.665 295.280,167.798 296.111 C 167.931 296.942,168.211 297.517,168.420 297.388 C 168.796 297.155,168.967 298.375,168.855 300.500 C 168.816 301.238,168.995 301.600,169.399 301.600 C 169.871 301.600,170.000 302.149,170.000 304.167 C 170.000 305.707,170.179 306.793,170.448 306.883 C 170.695 306.965,170.886 307.788,170.873 308.713 C 170.860 309.669,171.098 310.641,171.425 310.968 C 171.785 311.328,172.000 312.363,172.000 313.738 C 172.000 315.137,172.181 315.994,172.499 316.100 C 172.842 316.214,172.976 317.101,172.925 318.933 C 172.867 321.019,172.976 321.600,173.425 321.600 C 173.869 321.600,174.000 322.222,174.000 324.320 C 174.000 325.942,174.202 327.257,174.500 327.579 C 174.775 327.875,174.805 328.009,174.567 327.876 C 174.328 327.744,174.133 327.889,174.133 328.200 C 174.133 328.511,174.271 328.680,174.439 328.576 C 175.004 328.227,175.156 329.033,175.254 332.903 C 175.308 335.021,175.498 336.663,175.676 336.553 C 176.085 336.300,176.072 336.165,176.141 341.400 C 176.174 343.820,176.363 346.053,176.562 346.362 C 176.828 346.776,176.776 346.847,176.362 346.632 C 176.053 346.472,176.115 346.599,176.500 346.914 C 177.123 347.425,177.200 348.346,177.200 355.311 C 177.200 359.816,177.359 363.190,177.575 363.267 C 177.782 363.340,178.006 366.474,178.075 370.250 C 178.173 375.606,178.091 377.057,177.700 376.907 C 177.357 376.775,177.200 377.167,177.200 378.157 C 177.200 379.048,177.008 379.600,176.698 379.600 C 176.421 379.600,175.956 380.141,175.663 380.802 C 175.370 381.464,174.999 381.923,174.837 381.823 C 174.675 381.723,174.236 381.999,173.861 382.438 C 173.486 382.876,172.983 383.113,172.745 382.966 C 172.506 382.818,172.173 382.920,172.006 383.191 C 171.838 383.462,170.969 383.700,170.075 383.720 C 169.146 383.740,168.551 383.920,168.686 384.140 C 168.832 384.375,168.707 384.388,168.362 384.172 C 168.053 383.979,167.350 383.760,166.800 383.686 C 166.250 383.611,165.740 383.382,165.667 383.175 C 165.593 382.969,165.180 382.800,164.748 382.800 C 164.315 382.800,163.545 382.350,163.035 381.800 C 162.525 381.250,161.885 380.800,161.611 380.800 C 161.334 380.800,161.216 380.535,161.345 380.200 C 161.485 379.835,161.345 379.600,160.987 379.600 C 160.605 379.600,160.400 379.193,160.400 378.433 C 160.400 377.792,160.175 377.191,159.900 377.099 C 159.516 376.971,159.409 374.592,159.440 366.866 C 159.463 361.330,159.328 356.800,159.140 356.800 C 158.662 356.800,158.714 354.900,159.200 354.600 C 159.420 354.464,159.600 354.083,159.600 353.753 C 159.600 353.401,159.409 353.271,159.138 353.438 C 158.838 353.624,158.786 353.547,158.989 353.217 C 159.162 352.938,159.116 352.595,158.887 352.454 C 158.649 352.307,158.376 349.723,158.247 346.399 C 158.013 340.386,157.211 332.923,156.716 332.164 C 156.560 331.925,156.400 330.449,156.360 328.886 C 156.311 326.910,156.123 325.979,155.744 325.834 C 155.347 325.681,155.198 324.733,155.194 322.313 C 155.190 320.026,155.068 319.186,154.800 319.600 C 154.478 320.099,154.408 320.065,154.384 319.400 C 154.228 314.948,154.137 314.246,153.695 314.098 C 153.375 313.992,153.200 313.086,153.200 311.543 C 153.200 310.228,153.055 309.243,152.877 309.353 C 152.699 309.462,152.509 308.803,152.455 307.886 C 152.401 306.970,152.164 306.101,151.927 305.955 C 151.691 305.809,151.621 305.489,151.772 305.245 C 151.924 305.000,151.857 304.800,151.624 304.800 C 151.382 304.800,151.200 303.941,151.200 302.800 C 151.200 301.289,151.053 300.800,150.600 300.800 C 150.210 300.800,149.984 300.380,149.956 299.600 C 149.931 298.940,149.896 297.995,149.878 297.500 C 149.859 297.005,149.674 296.484,149.467 296.342 C 149.259 296.200,149.057 295.480,149.018 294.742 C 148.975 293.948,148.753 293.441,148.473 293.500 C 148.063 293.587,147.719 290.779,147.975 289.432 C 148.014 289.230,147.778 289.286,147.452 289.557 C 146.942 289.981,146.869 289.794,146.930 288.210 C 146.969 287.173,146.798 286.246,146.536 286.084 C 146.281 285.926,146.011 285.258,145.936 284.599 C 145.861 283.939,145.610 283.433,145.377 283.474 C 145.144 283.515,144.910 282.795,144.857 281.874 C 144.803 280.953,144.589 280.140,144.380 280.067 C 144.171 279.993,144.000 279.299,144.000 278.524 C 144.000 277.534,143.846 277.174,143.482 277.313 C 143.136 277.446,142.932 277.099,142.869 276.272 C 142.817 275.590,142.579 274.911,142.340 274.763 C 142.101 274.616,141.837 273.899,141.752 273.170 C 141.667 272.442,141.433 271.744,141.231 271.619 C 141.030 271.495,140.805 270.765,140.733 269.997 C 140.652 269.144,140.405 268.639,140.100 268.700 C 139.810 268.758,139.600 268.393,139.600 267.833 C 139.600 267.302,139.465 266.807,139.300 266.733 C 138.741 266.485,137.608 263.807,137.521 262.528 C 137.473 261.828,137.291 261.344,137.117 261.451 C 136.827 261.631,136.637 261.032,136.753 260.300 C 136.779 260.135,136.609 260.000,136.376 260.000 C 136.143 260.000,136.064 259.820,136.200 259.600 C 136.336 259.380,136.163 259.200,135.816 259.200 C 135.361 259.200,135.235 258.921,135.366 258.200 C 135.490 257.514,135.367 257.200,134.974 257.200 C 134.603 257.200,134.400 256.775,134.400 256.000 C 134.400 255.253,134.211 254.838,133.900 254.900 C 133.593 254.961,133.409 254.575,133.422 253.900 C 133.435 253.250,133.231 252.800,132.922 252.800 C 132.635 252.800,132.400 252.434,132.400 251.987 C 132.400 251.541,132.156 251.081,131.857 250.967 C 131.558 250.852,131.363 250.320,131.422 249.779 C 131.491 249.152,131.327 248.800,130.965 248.800 C 130.629 248.800,130.400 248.395,130.400 247.800 C 130.400 247.178,130.173 246.800,129.800 246.800 C 129.400 246.800,129.200 246.400,129.200 245.600 C 129.200 244.940,129.020 244.400,128.800 244.400 C 128.580 244.400,128.400 243.950,128.400 243.400 C 128.400 242.850,128.207 242.400,127.971 242.400 C 127.508 242.400,126.400 241.416,126.400 241.005 C 126.400 240.866,126.625 240.880,126.900 241.035 C 127.300 241.261,127.300 241.210,126.900 240.779 C 126.625 240.482,126.400 239.956,126.400 239.609 C 126.400 239.262,126.025 238.657,125.567 238.264 C 125.080 237.848,124.832 237.293,124.971 236.931 C 125.139 236.495,125.030 236.380,124.605 236.543 C 124.191 236.701,124.000 236.526,124.000 235.987 C 124.000 235.554,123.730 235.200,123.400 235.200 C 123.070 235.200,122.800 235.125,122.800 235.033 C 122.800 234.941,122.693 234.536,122.562 234.133 C 122.365 233.523,122.397 233.501,122.756 234.000 C 123.129 234.519,123.189 234.505,123.194 233.900 C 123.197 233.515,122.930 233.200,122.600 233.200 C 122.234 233.200,122.000 232.827,122.000 232.243 C 122.000 231.716,121.719 231.178,121.375 231.046 C 121.031 230.914,120.849 230.645,120.970 230.448 C 121.092 230.252,120.845 230.000,120.421 229.890 C 119.867 229.745,119.713 229.453,119.873 228.844 C 120.030 228.242,119.908 228.000,119.447 228.000 C 119.091 228.000,118.800 227.719,118.800 227.376 C 118.800 227.033,118.620 226.864,118.400 227.000 C 118.167 227.144,118.000 226.737,118.000 226.024 C 118.000 225.258,117.813 224.837,117.500 224.900 C 117.216 224.957,116.944 224.511,116.870 223.869 C 116.782 223.095,116.564 222.805,116.183 222.951 C 115.877 223.069,115.519 222.993,115.389 222.783 C 115.259 222.572,115.378 222.400,115.653 222.400 C 115.971 222.400,115.914 222.218,115.498 221.900 C 115.138 221.625,114.789 221.131,114.722 220.801 C 114.655 220.472,114.330 219.964,114.000 219.672 C 113.670 219.380,113.613 219.247,113.872 219.377 C 114.132 219.507,114.458 219.430,114.596 219.207 C 114.734 218.983,114.567 218.800,114.224 218.800 C 113.797 218.800,113.600 218.420,113.600 217.600 C 113.600 216.800,113.800 216.400,114.200 216.400 C 114.530 216.400,114.779 216.265,114.753 216.100 C 114.531 214.699,114.878 213.200,115.424 213.200 C 115.767 213.200,115.936 213.020,115.800 212.800 C 115.664 212.580,115.844 212.400,116.200 212.400 C 116.557 212.400,116.729 212.208,116.583 211.973 C 116.438 211.738,116.697 211.447,117.160 211.326 C 117.622 211.206,118.000 210.935,118.000 210.725 C 118.000 210.074,118.960 209.342,120.207 209.043 C 125.015 207.890,125.244 207.854,124.400 208.400 M276.980 208.833 C 276.820 209.091,277.012 209.233,277.456 209.186 C 279.112 209.012,280.000 209.226,280.000 209.800 C 280.000 210.130,280.270 210.400,280.600 210.400 C 280.930 210.400,281.200 210.580,281.200 210.800 C 281.200 211.020,281.470 211.200,281.800 211.200 C 282.130 211.200,282.355 211.362,282.300 211.560 C 282.245 211.758,282.335 211.938,282.500 211.960 C 283.249 212.060,284.238 213.494,284.183 214.400 C 284.150 214.950,284.379 215.699,284.691 216.065 C 285.354 216.840,285.223 219.043,284.522 218.907 C 284.202 218.845,284.084 219.334,284.165 220.395 C 284.230 221.265,284.131 221.881,283.944 221.765 C 283.757 221.650,283.396 222.009,283.143 222.565 C 282.890 223.120,282.502 223.463,282.280 223.326 C 282.058 223.189,281.996 223.270,282.142 223.506 C 282.288 223.742,282.136 224.207,281.804 224.539 C 281.472 224.871,281.200 225.420,281.200 225.759 C 281.200 226.128,280.971 226.287,280.629 226.156 C 280.220 225.999,280.116 226.159,280.264 226.722 C 280.400 227.243,280.159 227.723,279.545 228.153 C 279.038 228.509,278.849 228.800,279.127 228.800 C 279.438 228.800,279.319 229.135,278.816 229.675 C 278.367 230.157,278.000 230.697,278.000 230.875 C 278.000 231.054,277.730 231.200,277.400 231.200 C 276.992 231.200,276.796 231.617,276.787 232.500 C 276.774 233.872,276.021 235.200,275.256 235.200 C 275.005 235.200,274.800 235.411,274.800 235.669 C 274.800 235.926,274.485 236.497,274.100 236.937 C 273.715 237.377,273.625 237.606,273.900 237.445 C 274.651 237.006,274.502 237.524,273.600 238.492 C 273.160 238.964,272.800 239.587,272.800 239.875 C 272.800 240.164,272.519 240.400,272.175 240.400 C 271.819 240.400,271.580 240.702,271.621 241.100 C 271.756 242.430,271.599 243.246,271.249 243.030 C 271.055 242.911,270.780 243.395,270.637 244.106 C 270.432 245.123,270.294 245.271,269.994 244.800 C 269.706 244.348,269.611 244.521,269.606 245.500 C 269.602 246.290,269.398 246.800,269.085 246.800 C 268.802 246.800,268.540 247.202,268.503 247.694 C 268.466 248.186,268.248 248.651,268.018 248.727 C 267.788 248.804,267.600 249.282,267.600 249.791 C 267.600 250.299,267.330 250.818,267.000 250.945 C 266.670 251.071,266.400 251.541,266.400 251.987 C 266.400 252.434,266.232 252.800,266.027 252.800 C 265.821 252.800,265.596 253.295,265.527 253.900 C 265.452 254.544,265.185 254.956,264.881 254.894 C 264.596 254.835,264.392 255.015,264.428 255.294 C 264.588 256.514,264.356 257.200,263.782 257.200 C 263.443 257.200,263.215 257.425,263.276 257.700 C 263.434 258.408,262.349 260.938,261.723 261.320 C 261.436 261.496,261.200 262.261,261.200 263.020 C 261.200 263.779,261.020 264.400,260.800 264.400 C 260.580 264.400,260.400 264.835,260.400 265.367 C 260.400 265.898,260.225 266.393,260.012 266.467 C 259.798 266.540,259.548 267.050,259.457 267.600 C 259.365 268.150,259.108 268.561,258.885 268.513 C 258.385 268.406,257.962 269.966,258.182 271.108 C 258.297 271.706,258.182 271.891,257.788 271.740 C 257.403 271.592,257.243 271.816,257.271 272.463 C 257.352 274.282,257.193 274.800,256.553 274.800 C 256.079 274.800,255.958 275.067,256.098 275.800 C 256.216 276.417,256.105 276.800,255.809 276.800 C 255.532 276.800,255.306 277.432,255.273 278.299 C 255.242 279.124,254.943 279.999,254.608 280.243 C 254.274 280.488,254.000 281.127,254.000 281.664 C 254.000 282.201,253.775 282.882,253.500 283.179 C 253.096 283.614,253.106 283.657,253.552 283.403 C 253.930 283.188,254.040 283.264,253.902 283.644 C 253.791 283.950,253.490 284.153,253.234 284.095 C 252.946 284.030,252.812 284.412,252.884 285.095 C 252.959 285.812,252.824 286.165,252.500 286.100 C 252.160 286.032,252.000 286.569,252.000 287.776 C 252.000 288.753,251.792 289.681,251.538 289.838 C 251.233 290.027,251.186 289.946,251.400 289.600 C 251.617 289.249,251.568 289.173,251.251 289.368 C 250.991 289.529,250.805 289.872,250.837 290.130 C 251.019 291.606,250.750 293.617,250.400 293.400 C 250.163 293.253,250.000 293.718,250.000 294.544 C 250.000 296.320,249.599 297.445,249.197 296.796 C 249.037 296.537,248.885 297.274,248.859 298.435 C 248.833 299.596,248.606 300.673,248.354 300.828 C 248.103 300.984,248.021 301.311,248.172 301.555 C 248.324 301.800,248.234 302.000,247.972 302.000 C 247.644 302.000,247.575 302.485,247.750 303.576 C 247.983 305.036,247.478 306.233,247.103 305.108 C 247.011 304.834,246.903 305.503,246.862 306.593 C 246.818 307.742,246.567 308.699,246.263 308.869 C 245.944 309.047,245.702 310.069,245.645 311.473 C 245.594 312.743,245.409 313.877,245.235 313.991 C 245.061 314.106,244.886 315.261,244.847 316.558 C 244.772 319.037,244.563 319.748,244.011 319.407 C 243.827 319.293,243.711 320.125,243.752 321.256 C 243.793 322.386,243.630 323.691,243.389 324.156 C 243.148 324.620,242.936 325.137,242.917 325.304 C 242.898 325.471,242.755 327.046,242.600 328.804 C 242.444 330.562,242.187 332.000,242.028 332.000 C 241.870 332.000,241.698 333.751,241.647 335.891 C 241.591 338.229,241.375 339.892,241.106 340.058 C 240.500 340.433,240.294 342.000,240.851 342.000 C 241.160 342.000,241.172 342.155,240.889 342.500 C 240.655 342.787,240.516 344.835,240.564 347.300 C 240.629 350.667,240.531 351.600,240.112 351.600 C 239.726 351.600,239.603 352.131,239.674 353.500 C 240.036 360.559,239.565 376.378,238.974 376.968 C 238.630 377.312,238.452 377.760,238.577 377.963 C 238.702 378.166,238.595 378.402,238.339 378.487 C 238.083 378.572,237.809 379.065,237.730 379.582 C 237.581 380.560,236.563 381.565,235.700 381.587 C 235.425 381.594,235.200 381.870,235.200 382.200 C 235.200 382.573,234.822 382.800,234.200 382.800 C 233.607 382.800,233.200 383.029,233.200 383.363 C 233.200 383.728,232.920 383.852,232.400 383.716 C 231.816 383.563,231.592 383.709,231.572 384.253 C 231.550 384.844,231.487 384.875,231.272 384.400 C 231.104 384.030,230.388 383.777,229.400 383.739 C 228.520 383.706,227.294 383.661,226.676 383.639 C 226.037 383.617,225.659 383.428,225.800 383.200 C 225.936 382.980,225.672 382.800,225.214 382.800 C 224.693 382.800,224.238 382.425,224.000 381.800 C 223.791 381.250,223.351 380.800,223.022 380.800 C 222.630 380.800,222.513 380.572,222.681 380.134 C 222.852 379.687,222.783 379.564,222.468 379.758 C 222.016 380.037,221.831 379.566,221.971 378.495 C 222.008 378.217,221.759 377.882,221.419 377.752 C 220.559 377.422,220.489 360.631,221.342 359.389 C 221.744 358.804,221.887 356.860,221.896 351.866 C 221.904 347.462,222.062 344.978,222.354 344.686 C 222.627 344.413,222.800 342.564,222.800 339.920 C 222.800 336.677,222.925 335.625,223.300 335.700 C 223.671 335.774,223.807 334.794,223.826 331.894 C 223.843 329.452,224.031 327.809,224.326 327.514 C 224.605 327.235,224.800 325.836,224.800 324.120 C 224.800 321.801,224.923 321.200,225.395 321.200 C 225.864 321.200,225.982 320.658,225.952 318.652 C 225.926 316.893,226.121 315.787,226.581 315.085 C 227.058 314.357,227.172 313.658,226.981 312.637 C 226.778 311.556,226.859 311.152,227.315 310.977 C 227.746 310.812,227.925 310.121,227.944 308.559 C 227.961 307.155,228.190 306.153,228.585 305.758 C 229.327 305.016,229.389 304.639,228.700 305.053 C 228.328 305.277,228.306 305.206,228.615 304.777 C 228.843 304.460,229.085 303.660,229.153 303.000 C 229.221 302.340,229.439 301.740,229.638 301.667 C 229.837 301.593,230.000 300.753,230.000 299.799 C 230.000 297.604,230.368 296.507,230.850 297.266 C 231.057 297.594,231.190 296.924,231.194 295.533 C 231.198 294.103,231.381 293.206,231.691 293.103 C 231.971 293.010,232.182 292.243,232.182 291.317 C 232.182 290.168,232.330 289.752,232.691 289.890 C 233.065 290.034,233.200 289.499,233.200 287.866 C 233.200 286.620,233.403 285.522,233.662 285.362 C 233.948 285.185,234.015 285.252,233.838 285.538 C 233.681 285.792,233.757 286.000,234.007 286.000 C 234.287 286.000,234.413 285.435,234.335 284.532 C 234.256 283.622,234.397 283.001,234.704 282.899 C 234.988 282.804,235.200 282.053,235.200 281.143 C 235.200 280.268,235.361 279.652,235.558 279.774 C 235.984 280.037,236.400 279.086,236.400 277.847 C 236.400 277.359,236.568 276.789,236.774 276.580 C 236.979 276.371,237.236 275.412,237.345 274.448 C 237.454 273.485,237.736 272.504,237.972 272.268 C 238.207 272.033,238.400 271.516,238.400 271.120 C 238.400 270.724,238.673 270.400,239.008 270.400 C 239.456 270.400,239.549 270.138,239.364 269.400 C 239.183 268.676,239.274 268.400,239.696 268.400 C 240.069 268.400,240.291 267.968,240.312 267.199 C 240.366 265.315,240.813 264.177,241.238 264.847 C 241.475 265.222,241.590 264.924,241.594 263.924 C 241.597 263.112,241.780 262.336,242.000 262.200 C 242.220 262.064,242.400 261.429,242.400 260.789 C 242.400 259.869,242.539 259.678,243.064 259.880 C 243.591 260.082,243.682 259.956,243.502 259.268 C 243.377 258.791,243.430 258.305,243.620 258.188 C 243.810 258.070,243.864 257.710,243.740 257.387 C 243.616 257.064,243.724 256.800,243.981 256.800 C 244.237 256.800,244.336 256.980,244.200 257.200 C 244.064 257.420,244.143 257.600,244.376 257.600 C 244.609 257.600,244.800 256.970,244.800 256.200 C 244.800 255.430,244.980 254.800,245.200 254.800 C 245.420 254.800,245.600 254.260,245.600 253.600 C 245.600 252.800,245.800 252.400,246.200 252.400 C 246.530 252.400,246.800 252.128,246.800 251.795 C 246.800 251.462,246.967 250.877,247.171 250.495 C 247.375 250.113,247.643 249.474,247.768 249.075 C 247.892 248.676,248.191 248.471,248.432 248.620 C 248.707 248.790,248.840 248.541,248.790 247.945 C 248.661 246.398,248.773 245.995,249.300 246.100 C 249.609 246.162,249.752 245.855,249.675 245.300 C 249.590 244.688,249.755 244.400,250.192 244.400 C 250.546 244.400,250.792 244.175,250.739 243.900 C 250.541 242.868,251.258 241.453,251.677 242.047 C 251.950 242.433,252.000 242.209,251.844 241.304 C 251.697 240.448,251.776 240.040,252.075 240.104 C 252.325 240.157,252.651 239.750,252.800 239.200 C 252.949 238.650,253.280 238.245,253.535 238.300 C 253.807 238.358,254.000 237.902,254.000 237.200 C 254.000 236.459,254.189 236.038,254.496 236.100 C 254.816 236.165,254.947 235.812,254.867 235.100 C 254.778 234.314,254.922 234.000,255.371 234.000 C 255.775 234.000,256.000 233.642,256.000 233.000 C 256.000 232.387,256.228 232.000,256.587 232.000 C 256.926 232.000,257.084 231.763,256.960 231.440 C 256.842 231.133,256.966 230.745,257.235 230.579 C 257.568 230.373,257.621 230.443,257.400 230.800 C 257.186 231.146,257.233 231.227,257.538 231.038 C 257.792 230.881,258.000 230.313,258.000 229.776 C 258.000 229.239,258.162 228.800,258.361 228.800 C 258.559 228.800,258.915 228.246,259.151 227.570 C 259.386 226.893,259.764 226.454,259.990 226.594 C 260.229 226.742,260.400 226.421,260.400 225.824 C 260.400 225.261,260.580 224.800,260.800 224.800 C 261.020 224.800,261.200 224.446,261.200 224.013 C 261.200 223.477,261.392 223.299,261.800 223.455 C 262.239 223.624,262.400 223.405,262.400 222.643 C 262.400 222.069,262.580 221.600,262.800 221.600 C 263.020 221.600,263.200 221.190,263.200 220.689 C 263.200 219.773,264.700 218.120,265.347 218.323 C 265.538 218.383,265.580 217.974,265.440 217.416 C 265.293 216.831,265.356 216.400,265.588 216.400 C 266.557 216.400,267.583 215.062,267.086 214.447 C 266.702 213.972,266.705 213.910,267.100 214.147 C 267.415 214.336,267.600 214.216,267.600 213.824 C 267.600 213.481,267.767 213.200,267.972 213.200 C 268.177 213.200,268.402 212.795,268.472 212.300 C 268.542 211.805,268.840 211.400,269.132 211.400 C 269.425 211.400,269.893 211.088,270.172 210.706 C 270.451 210.325,270.792 210.125,270.930 210.263 C 271.068 210.402,271.295 210.219,271.433 209.857 C 271.608 209.403,272.167 209.200,273.243 209.200 C 274.099 209.200,274.800 209.020,274.800 208.800 C 274.800 208.580,275.351 208.400,276.024 208.400 C 276.799 208.400,277.149 208.558,276.980 208.833 M366.541 397.810 C 366.396 398.187,365.765 398.400,364.791 398.400 C 363.952 398.400,363.200 398.600,363.118 398.845 C 363.037 399.090,362.297 399.308,361.475 399.330 C 360.430 399.357,360.039 399.525,360.177 399.885 C 360.294 400.190,360.075 400.400,359.636 400.400 C 359.230 400.400,358.689 400.651,358.434 400.959 C 358.179 401.266,357.633 401.429,357.220 401.321 C 356.730 401.193,356.310 401.420,356.014 401.974 C 355.764 402.440,355.384 402.714,355.170 402.581 C 354.956 402.449,354.830 402.575,354.890 402.861 C 354.952 403.151,354.559 403.446,354.000 403.529 C 353.450 403.610,352.854 403.933,352.675 404.247 C 352.497 404.560,352.177 404.710,351.966 404.579 C 351.754 404.448,351.630 404.512,351.690 404.722 C 351.858 405.306,349.603 407.249,349.111 406.945 C 348.851 406.785,348.791 406.863,348.962 407.138 C 349.217 407.551,348.739 407.780,347.900 407.647 C 347.735 407.621,347.621 407.735,347.647 407.900 C 347.775 408.708,347.547 409.200,347.046 409.200 C 346.741 409.200,346.193 409.656,345.828 410.213 C 345.463 410.770,344.995 411.120,344.787 410.992 C 344.579 410.864,344.512 411.027,344.638 411.355 C 344.773 411.706,344.524 412.166,344.033 412.472 C 343.575 412.758,343.200 413.219,343.200 413.496 C 343.200 413.773,343.032 414.000,342.827 414.000 C 342.622 414.000,342.332 414.384,342.183 414.853 C 341.971 415.523,341.837 415.587,341.562 415.153 C 341.285 414.714,341.211 414.745,341.206 415.300 C 341.203 415.685,341.032 416.000,340.827 416.000 C 340.621 416.000,340.396 416.495,340.327 417.100 C 340.255 417.719,339.981 418.156,339.700 418.100 C 339.425 418.045,339.200 418.255,339.200 418.567 C 339.200 418.878,339.010 419.197,338.778 419.274 C 338.546 419.351,338.312 419.717,338.258 420.088 C 338.203 420.458,337.654 421.229,337.038 421.800 C 336.316 422.469,335.987 423.108,336.114 423.594 C 336.226 424.022,336.071 424.441,335.756 424.562 C 335.450 424.679,335.200 425.141,335.200 425.587 C 335.200 426.034,334.975 426.400,334.700 426.400 C 334.407 426.400,334.167 426.997,334.121 427.841 C 334.076 428.661,333.749 429.496,333.360 429.780 C 332.985 430.054,332.807 430.487,332.964 430.742 C 333.122 430.997,332.970 431.488,332.626 431.832 C 332.281 432.176,332.000 432.969,332.000 433.595 C 332.000 434.221,331.791 434.803,331.535 434.888 C 331.085 435.038,330.909 435.602,330.717 437.500 C 330.667 437.995,330.485 438.400,330.313 438.400 C 330.141 438.400,330.000 439.210,330.000 440.200 C 330.000 441.433,329.832 442.000,329.467 442.000 C 329.077 442.000,328.919 442.771,328.880 444.868 C 328.850 446.446,328.666 447.841,328.469 447.968 C 328.273 448.096,328.136 448.950,328.165 449.867 C 328.194 450.785,328.056 451.434,327.857 451.312 C 327.650 451.184,327.570 452.120,327.670 453.502 C 327.809 455.412,327.732 455.872,327.306 455.708 C 326.916 455.559,326.817 455.781,326.950 456.513 C 327.086 457.265,326.937 457.575,326.367 457.725 C 325.854 457.859,325.600 458.277,325.600 458.986 C 325.600 459.570,325.439 459.948,325.242 459.826 C 325.045 459.704,324.784 459.865,324.662 460.183 C 324.536 460.512,324.085 460.693,323.620 460.604 C 323.099 460.504,322.800 460.657,322.800 461.023 C 322.800 461.621,322.445 461.741,320.881 461.673 C 320.376 461.652,319.861 461.896,319.738 462.217 C 319.451 462.966,317.354 462.978,317.068 462.232 C 316.948 461.919,316.523 461.712,316.125 461.770 C 315.726 461.829,315.195 461.598,314.945 461.256 C 314.695 460.915,313.984 460.608,313.364 460.575 C 312.745 460.542,312.170 460.309,312.086 460.057 C 312.002 459.806,311.498 459.600,310.967 459.600 C 310.406 459.600,310.000 459.365,310.000 459.042 C 310.000 458.703,309.412 458.398,308.500 458.265 C 305.276 457.793,304.456 457.521,304.659 456.990 C 304.789 456.652,304.598 456.501,304.131 456.572 C 303.092 456.729,301.157 455.994,301.433 455.547 C 301.563 455.337,301.227 455.252,300.664 455.354 C 300.114 455.454,299.335 455.286,298.932 454.980 C 298.530 454.675,297.795 454.420,297.300 454.413 C 296.754 454.405,296.400 454.153,296.400 453.771 C 296.400 453.365,296.082 453.168,295.500 453.216 C 293.951 453.341,293.145 453.213,293.355 452.874 C 293.465 452.694,292.711 452.507,291.678 452.458 C 290.592 452.406,289.613 452.122,289.356 451.784 C 289.112 451.463,288.521 451.200,288.043 451.200 C 287.566 451.200,287.073 450.936,286.949 450.612 C 286.802 450.228,286.310 450.073,285.531 450.163 C 284.775 450.251,284.259 450.098,284.123 449.744 C 284.005 449.437,283.704 449.210,283.454 449.240 C 282.167 449.395,280.782 449.153,280.993 448.812 C 281.288 448.334,279.468 447.837,278.424 448.110 C 277.942 448.236,277.727 448.135,277.841 447.837 C 277.954 447.544,277.527 447.329,276.711 447.269 C 275.561 447.185,274.217 446.984,273.600 446.802 C 273.490 446.770,273.760 446.589,274.200 446.400 C 274.777 446.152,274.365 446.048,272.724 446.028 C 271.464 446.013,270.320 445.794,270.162 445.538 C 269.973 445.233,270.054 445.186,270.400 445.400 C 270.739 445.610,270.827 445.567,270.649 445.279 C 270.498 445.034,269.885 444.834,269.287 444.835 C 267.555 444.836,266.800 444.690,266.800 444.355 C 266.800 444.184,265.945 443.989,264.900 443.922 C 263.834 443.853,263.033 443.613,263.076 443.373 C 263.118 443.132,262.340 442.905,261.285 442.850 C 260.258 442.797,259.322 442.597,259.203 442.406 C 259.085 442.214,258.721 442.073,258.394 442.092 C 256.495 442.201,254.782 441.953,255.000 441.600 C 255.274 441.157,255.077 441.101,252.900 441.006 C 250.797 440.914,249.200 440.461,249.200 439.957 C 249.200 439.680,248.637 439.625,247.601 439.800 C 246.339 440.013,245.950 439.936,245.758 439.435 C 245.566 438.934,244.888 438.800,242.545 438.800 C 240.422 438.800,239.516 438.646,239.368 438.261 C 239.233 437.909,238.368 437.695,236.880 437.646 C 233.783 437.544,233.600 437.516,233.600 437.133 C 233.600 436.950,233.465 436.821,233.300 436.847 C 231.543 437.125,226.800 436.716,226.800 436.288 C 226.800 435.907,225.653 435.755,222.328 435.695 C 219.868 435.650,217.747 435.438,217.614 435.223 C 217.479 435.005,213.800 434.709,209.286 434.554 C 204.839 434.401,201.200 434.169,201.200 434.038 C 201.201 433.773,186.414 433.888,185.549 434.160 C 185.247 434.255,181.783 434.434,177.851 434.558 C 173.766 434.687,170.483 434.965,170.192 435.207 C 169.912 435.439,167.664 435.660,165.197 435.698 C 161.952 435.748,160.656 435.910,160.513 436.283 C 160.375 436.641,159.404 436.800,157.357 436.800 C 155.652 436.800,154.400 436.969,154.400 437.200 C 154.400 437.426,153.267 437.600,151.800 437.600 C 149.756 437.600,149.200 437.728,149.200 438.200 C 149.200 438.805,148.163 438.967,145.300 438.810 C 144.319 438.756,144.000 438.904,144.000 439.414 C 144.000 439.972,143.751 440.042,142.570 439.821 C 141.677 439.653,140.925 439.730,140.570 440.025 C 140.256 440.285,140.000 440.373,140.000 440.220 C 140.000 440.068,139.740 440.203,139.421 440.521 C 139.040 440.903,138.257 441.050,137.121 440.953 C 135.892 440.847,135.629 440.905,136.200 441.155 C 136.876 441.450,136.752 441.546,135.400 441.774 C 134.520 441.923,133.234 442.293,132.542 442.596 C 131.850 442.899,130.875 443.040,130.374 442.909 C 129.681 442.728,129.519 442.812,129.692 443.263 C 129.909 443.828,129.336 443.951,125.718 444.112 C 125.452 444.124,125.328 444.283,125.441 444.467 C 125.637 444.784,125.440 444.869,124.300 444.960 C 124.025 444.982,123.603 445.252,123.361 445.560 C 123.120 445.868,122.310 446.138,121.561 446.160 C 120.701 446.185,120.237 446.384,120.300 446.700 C 120.387 447.135,118.350 447.468,117.051 447.231 C 116.859 447.196,116.805 447.435,116.931 447.763 C 117.087 448.172,116.972 448.288,116.565 448.131 C 116.238 448.006,115.616 448.224,115.182 448.616 C 114.711 449.042,113.838 449.309,113.014 449.278 C 112.046 449.241,111.693 449.378,111.831 449.736 C 111.961 450.076,111.657 450.238,110.913 450.223 C 110.227 450.209,109.838 450.392,109.900 450.700 C 109.955 450.975,109.640 451.223,109.200 451.250 C 108.760 451.277,108.010 451.323,107.533 451.350 C 107.057 451.377,106.592 451.625,106.500 451.900 C 106.408 452.175,106.099 452.400,105.812 452.400 C 105.526 452.400,104.789 452.661,104.174 452.980 C 103.560 453.298,102.909 453.468,102.729 453.356 C 102.548 453.244,102.400 453.433,102.400 453.776 C 102.400 454.377,101.961 454.568,100.900 454.430 C 100.625 454.394,100.400 454.627,100.400 454.947 C 100.400 455.267,100.100 455.485,99.733 455.431 C 99.367 455.378,98.727 455.673,98.313 456.087 C 97.815 456.585,97.261 456.757,96.680 456.594 C 95.992 456.401,95.931 456.438,96.400 456.762 C 96.884 457.096,96.753 457.226,95.720 457.434 C 95.017 457.576,94.131 458.034,93.753 458.452 C 93.375 458.870,92.387 459.321,91.557 459.453 C 90.728 459.586,89.950 459.955,89.828 460.273 C 89.705 460.591,89.424 460.739,89.203 460.602 C 88.981 460.465,88.800 460.633,88.800 460.976 C 88.800 461.551,87.637 461.831,86.094 461.628 C 85.815 461.592,85.635 461.791,85.694 462.072 C 85.855 462.842,83.937 462.987,83.516 462.236 C 83.298 461.846,82.626 461.600,81.780 461.600 C 80.779 461.600,80.400 461.423,80.400 460.957 C 80.400 460.556,80.179 460.399,79.813 460.540 C 79.490 460.664,79.129 460.608,79.010 460.417 C 78.892 460.225,79.021 459.977,79.298 459.866 C 79.752 459.682,78.647 459.435,77.900 459.553 C 77.397 459.632,77.566 458.880,78.100 458.665 C 78.481 458.511,78.475 458.456,78.071 458.432 C 77.088 458.373,76.400 457.264,76.394 455.729 C 76.390 454.647,76.281 454.369,76.021 454.779 C 75.736 455.230,75.591 455.102,75.366 454.206 C 75.207 453.572,74.848 452.614,74.570 452.077 C 74.291 451.540,74.158 450.853,74.274 450.550 C 74.405 450.209,74.203 449.989,73.743 449.972 C 73.058 449.946,73.063 449.917,73.800 449.600 C 74.484 449.306,74.499 449.252,73.900 449.228 C 73.395 449.208,73.200 448.865,73.200 448.000 C 73.200 447.340,73.043 446.800,72.850 446.800 C 72.658 446.800,72.390 446.250,72.255 445.577 C 72.121 444.904,71.746 444.089,71.422 443.765 C 71.099 443.442,70.936 442.912,71.060 442.588 C 71.201 442.221,71.044 442.000,70.643 442.000 C 70.273 442.000,70.000 441.670,70.000 441.224 C 70.000 440.797,69.801 440.324,69.557 440.174 C 69.244 439.980,69.263 439.808,69.622 439.586 C 70.017 439.342,69.981 439.124,69.461 438.604 C 69.093 438.236,68.912 437.742,69.058 437.506 C 69.209 437.262,69.137 437.192,68.891 437.344 C 68.483 437.596,67.742 436.172,67.925 435.488 C 67.971 435.316,67.653 434.794,67.218 434.327 C 66.783 433.861,66.523 433.325,66.639 433.137 C 66.756 432.948,66.570 432.687,66.228 432.555 C 65.885 432.424,65.704 432.155,65.826 431.958 C 65.948 431.761,65.767 431.600,65.424 431.600 C 65.081 431.600,64.800 431.328,64.800 430.995 C 64.800 430.436,64.407 429.513,63.526 428.000 C 63.334 427.670,63.071 427.085,62.942 426.700 C 62.812 426.315,62.503 425.997,62.253 425.994 C 61.972 425.990,62.000 425.861,62.327 425.654 C 62.711 425.410,62.532 425.186,61.666 424.827 C 60.759 424.452,60.502 424.110,60.582 423.384 C 60.653 422.740,60.332 422.161,59.587 421.590 C 58.822 421.004,58.552 420.504,58.699 419.944 C 58.839 419.406,58.725 419.166,58.355 419.217 C 57.342 419.359,56.800 419.205,56.800 418.776 C 56.800 418.543,56.980 418.464,57.200 418.600 C 57.420 418.736,57.600 418.657,57.600 418.424 C 57.600 418.191,57.319 418.000,56.976 418.000 C 56.633 418.000,56.425 417.865,56.513 417.700 C 56.692 417.365,55.369 415.988,54.900 416.021 C 54.735 416.033,54.536 415.718,54.459 415.321 C 54.381 414.925,54.038 414.285,53.697 413.900 C 53.355 413.515,53.239 413.189,53.438 413.175 C 53.637 413.161,53.383 412.982,52.874 412.778 C 52.365 412.574,52.053 412.238,52.180 412.032 C 52.408 411.663,50.912 410.957,50.270 411.131 C 50.088 411.180,50.055 410.856,50.197 410.410 C 50.345 409.942,50.274 409.600,50.027 409.600 C 49.792 409.600,49.600 409.787,49.600 410.016 C 49.600 410.255,49.365 410.213,49.044 409.916 C 48.642 409.542,48.614 409.319,48.944 409.106 C 49.210 408.935,48.982 408.797,48.400 408.775 C 47.850 408.754,47.625 408.646,47.900 408.535 C 48.175 408.424,48.400 408.158,48.400 407.943 C 48.400 407.728,48.206 407.673,47.968 407.820 C 47.730 407.967,47.279 407.720,46.965 407.271 C 46.650 406.822,45.990 406.397,45.496 406.327 C 45.003 406.257,44.422 405.795,44.205 405.300 C 43.963 404.748,43.460 404.400,42.905 404.400 C 42.407 404.400,42.000 404.232,42.000 404.027 C 42.000 403.822,41.616 403.532,41.147 403.383 C 40.477 403.171,40.413 403.037,40.847 402.762 C 41.256 402.503,41.160 402.411,40.476 402.406 C 39.964 402.403,39.663 402.222,39.800 402.000 C 39.936 401.780,39.857 401.578,39.624 401.550 C 39.179 401.498,38.606 401.367,38.100 401.203 C 37.935 401.149,37.665 401.127,37.500 401.153 C 37.335 401.179,37.200 401.020,37.200 400.800 C 37.200 400.580,36.551 400.400,35.757 400.400 C 34.639 400.400,34.366 400.265,34.545 399.800 C 34.671 399.470,34.601 399.200,34.387 399.200 C 34.174 399.200,34.000 399.386,34.000 399.614 C 34.000 399.900,33.760 399.900,33.226 399.614 C 32.801 399.386,31.856 399.197,31.126 399.194 C 30.123 399.189,29.946 399.093,30.400 398.800 C 30.812 398.534,29.865 398.410,27.380 398.406 C 25.389 398.403,23.589 398.571,23.380 398.779 C 23.171 398.988,22.190 399.223,21.200 399.302 C 20.075 399.391,19.438 399.624,19.500 399.923 C 19.560 400.209,19.119 400.400,18.400 400.400 C 17.580 400.400,17.200 400.597,17.200 401.024 C 17.200 401.367,17.032 401.543,16.827 401.417 C 16.622 401.290,16.133 401.729,15.741 402.393 C 15.348 403.057,14.888 403.600,14.718 403.600 C 14.169 403.600,12.835 404.932,13.044 405.271 C 13.156 405.452,12.956 405.600,12.600 405.600 C 12.244 405.600,12.051 405.760,12.172 405.955 C 12.292 406.150,12.032 406.403,11.594 406.518 C 11.053 406.659,10.877 406.936,11.047 407.379 C 11.207 407.796,11.112 407.991,10.784 407.916 C 10.502 407.852,10.149 408.250,10.000 408.800 C 9.851 409.350,9.498 409.748,9.216 409.684 C 8.907 409.614,8.792 409.803,8.929 410.158 C 9.053 410.483,8.788 411.216,8.339 411.786 C 7.891 412.357,7.619 413.073,7.736 413.379 C 7.854 413.684,7.691 414.033,7.375 414.154 C 7.059 414.276,6.800 414.820,6.800 415.364 C 6.800 415.908,6.592 416.481,6.338 416.638 C 6.052 416.815,5.985 416.748,6.162 416.462 C 6.319 416.208,6.238 416.000,5.982 416.000 C 5.680 416.000,5.570 416.562,5.669 417.600 C 5.766 418.620,5.656 419.200,5.365 419.200 C 5.092 419.200,4.826 420.244,4.701 421.804 C 4.586 423.236,4.311 424.631,4.090 424.904 C 3.516 425.613,3.590 446.398,4.167 446.406 C 4.405 446.409,4.362 446.563,4.070 446.748 C 3.641 447.021,3.659 447.202,4.170 447.713 C 4.623 448.166,4.800 449.128,4.800 451.138 C 4.800 453.011,4.964 453.988,5.297 454.099 C 5.644 454.215,5.759 455.073,5.676 456.932 C 5.578 459.129,5.667 459.600,6.179 459.600 C 6.781 459.600,7.029 461.270,6.816 463.898 C 6.768 464.495,6.920 464.730,7.272 464.597 C 7.664 464.448,7.811 464.924,7.842 466.439 C 7.867 467.631,8.099 468.614,8.400 468.800 C 8.683 468.975,8.936 469.901,8.962 470.859 C 8.990 471.854,9.194 472.567,9.439 472.522 C 9.901 472.438,9.908 472.471,10.024 475.292 C 10.066 476.333,10.258 477.088,10.451 476.969 C 10.771 476.771,10.885 477.506,10.904 479.889 C 10.908 480.379,11.047 480.695,11.213 480.592 C 11.639 480.329,12.000 481.429,12.000 482.990 C 12.000 483.816,12.233 484.404,12.619 484.552 C 13.097 484.735,13.176 485.124,12.964 486.253 C 12.777 487.248,12.826 487.631,13.116 487.452 C 13.682 487.102,14.001 488.212,14.058 490.733 C 14.091 492.193,14.265 492.800,14.652 492.800 C 15.042 492.800,15.200 493.369,15.200 494.767 C 15.200 495.848,15.399 496.800,15.642 496.881 C 15.885 496.962,16.132 497.832,16.191 498.814 C 16.345 501.378,16.371 501.464,16.800 500.800 C 17.080 500.366,17.189 500.726,17.194 502.100 C 17.197 503.145,17.380 504.000,17.600 504.000 C 17.820 504.000,18.000 504.191,18.000 504.424 C 18.000 504.657,17.828 504.741,17.617 504.610 C 17.406 504.480,17.490 504.868,17.803 505.471 C 18.117 506.075,18.276 506.955,18.157 507.427 C 18.031 507.929,18.206 508.549,18.578 508.921 C 18.973 509.316,19.230 510.313,19.259 511.561 C 19.287 512.802,19.474 513.534,19.752 513.483 C 20.021 513.433,20.250 514.197,20.326 515.392 C 20.395 516.488,20.632 517.496,20.854 517.633 C 21.075 517.770,21.280 518.713,21.309 519.729 C 21.341 520.832,21.571 521.657,21.881 521.776 C 22.166 521.885,22.400 522.575,22.400 523.307 C 22.400 524.040,22.625 524.882,22.900 525.179 C 23.300 525.610,23.300 525.661,22.900 525.435 C 22.625 525.280,22.400 525.324,22.400 525.534 C 22.400 525.743,22.625 526.001,22.901 526.107 C 23.224 526.231,23.374 526.990,23.322 528.241 C 23.272 529.448,23.454 530.418,23.803 530.804 C 24.117 531.150,24.417 532.480,24.482 533.812 L 24.600 536.200 199.400 536.200 L 374.200 536.200 374.323 534.279 C 374.391 533.206,374.668 532.272,374.949 532.164 C 375.233 532.055,375.494 531.152,375.549 530.088 C 375.603 529.053,375.879 528.076,376.162 527.917 C 376.446 527.759,376.694 527.041,376.715 526.322 C 376.735 525.604,376.943 524.952,377.176 524.875 C 377.760 524.680,377.713 523.600,377.120 523.600 C 376.747 523.600,376.747 523.493,377.120 523.120 C 377.384 522.856,377.600 522.226,377.600 521.720 C 377.600 521.161,377.840 520.800,378.213 520.800 C 378.669 520.800,378.800 520.426,378.726 519.329 C 378.667 518.451,378.823 517.792,379.113 517.696 C 379.417 517.594,379.600 516.703,379.600 515.324 C 379.600 513.462,379.701 513.153,380.241 513.360 C 380.779 513.567,380.859 513.328,380.741 511.854 C 380.630 510.471,380.719 510.147,381.166 510.319 C 381.526 510.457,381.626 510.366,381.442 510.068 C 381.283 509.811,381.363 509.600,381.620 509.600 C 381.919 509.600,381.996 509.238,381.834 508.591 C 381.653 507.874,381.763 507.512,382.212 507.340 C 382.560 507.207,382.814 506.716,382.778 506.249 C 382.628 504.325,382.828 503.200,383.321 503.200 C 383.644 503.200,383.857 502.655,383.882 501.758 C 383.905 500.966,384.120 500.120,384.362 499.878 C 384.603 499.637,384.800 498.846,384.800 498.120 C 384.800 497.331,385.001 496.800,385.300 496.800 C 385.619 496.800,385.823 496.128,385.864 494.946 C 385.898 493.926,386.147 492.957,386.415 492.791 C 386.691 492.620,386.767 492.270,386.589 491.983 C 386.376 491.638,386.437 491.576,386.781 491.788 C 387.163 492.025,387.222 491.810,387.022 490.901 C 386.830 490.027,386.921 489.639,387.356 489.472 C 387.685 489.346,387.931 488.918,387.904 488.521 C 387.828 487.430,388.384 485.543,388.719 485.750 C 388.882 485.851,389.057 485.003,389.109 483.866 C 389.161 482.730,389.382 481.740,389.601 481.667 C 389.821 481.593,390.000 480.823,390.000 479.954 C 390.000 479.018,390.214 478.293,390.526 478.173 C 390.836 478.054,391.092 477.199,391.149 476.095 C 391.203 475.063,391.461 474.086,391.723 473.924 C 391.990 473.759,392.200 472.742,392.200 471.610 C 392.200 470.211,392.347 469.647,392.677 469.774 C 393.007 469.901,393.149 469.357,393.139 468.008 C 393.121 465.697,393.545 463.519,393.962 463.777 C 394.125 463.877,394.301 463.028,394.353 461.889 C 394.405 460.750,394.662 459.681,394.924 459.515 C 395.261 459.300,395.225 459.209,394.800 459.200 C 394.395 459.192,394.348 459.092,394.657 458.894 C 394.909 458.732,395.109 458.240,395.103 457.800 C 395.034 453.300,395.249 450.810,395.700 450.900 C 396.091 450.978,396.211 448.145,396.251 437.900 C 396.280 430.606,396.147 424.800,395.951 424.800 C 395.758 424.800,395.600 424.609,395.600 424.376 C 395.600 424.143,395.780 424.064,396.000 424.200 C 396.220 424.336,396.400 424.266,396.400 424.043 C 396.400 423.821,396.146 423.496,395.836 423.320 C 395.512 423.136,395.227 422.235,395.166 421.200 C 395.107 420.210,394.866 419.140,394.630 418.823 C 394.306 418.389,394.324 418.321,394.700 418.547 C 394.975 418.712,395.200 418.657,395.200 418.424 C 395.200 418.191,394.954 418.000,394.652 418.000 C 394.274 418.000,394.150 417.611,394.252 416.740 C 394.332 416.047,394.174 415.202,393.899 414.863 C 393.485 414.351,393.502 414.303,394.000 414.582 C 394.330 414.767,394.210 414.538,393.733 414.074 C 393.177 413.533,392.944 412.937,393.082 412.410 C 393.244 411.787,393.146 411.646,392.677 411.826 C 392.215 412.003,392.110 411.865,392.263 411.279 C 392.390 410.795,392.145 410.194,391.624 409.708 C 391.104 409.223,390.876 408.667,391.032 408.260 C 391.203 407.815,391.076 407.600,390.643 407.600 C 390.025 407.600,389.831 407.168,389.970 406.100 C 390.006 405.825,389.847 405.600,389.618 405.600 C 389.388 405.600,389.200 405.330,389.200 405.000 C 389.200 404.670,389.065 404.444,388.900 404.497 C 388.426 404.650,386.775 403.358,387.069 403.064 C 387.214 402.919,387.033 402.800,386.667 402.800 C 386.244 402.800,385.998 402.471,385.994 401.900 C 385.989 401.230,385.898 401.141,385.638 401.553 C 385.363 401.987,385.229 401.921,385.015 401.247 C 384.865 400.775,384.596 400.479,384.417 400.590 C 384.238 400.700,383.997 400.433,383.883 399.996 C 383.662 399.150,382.800 398.884,382.800 399.661 C 382.800 399.915,382.485 399.780,382.100 399.361 C 381.715 398.943,381.040 398.550,380.600 398.489 C 378.561 398.205,377.853 397.938,378.341 397.637 C 378.615 397.467,376.124 397.304,372.804 397.274 C 367.817 397.229,366.728 397.322,366.541 397.810 " stroke="none" fill="#54ec64" fill-rule="evenodd"></path><path id="path1" d="M114.989 54.200 C 114.989 69.600,115.039 75.842,115.100 68.071 C 115.161 60.300,115.161 47.700,115.100 40.071 C 115.039 32.442,114.989 38.800,114.989 54.200 M273.856 98.278 C 273.405 98.728,273.581 99.200,274.200 99.200 C 274.530 99.200,274.800 99.031,274.800 98.824 C 274.800 98.319,274.175 97.958,273.856 98.278 M57.646 185.500 C 57.682 186.343,57.739 186.413,57.893 185.800 C 58.003 185.360,58.297 184.868,58.546 184.706 C 58.834 184.520,58.744 184.410,58.300 184.406 C 57.790 184.402,57.613 184.699,57.646 185.500 M146.800 289.067 C 146.800 289.507,147.067 289.867,147.394 289.867 C 147.871 289.867,147.893 289.742,147.507 289.233 C 147.243 288.885,146.975 288.525,146.913 288.433 C 146.851 288.342,146.800 288.627,146.800 289.067 M247.256 305.055 C 246.776 306.127,246.786 306.158,247.418 305.539 C 247.789 305.176,248.020 304.660,247.931 304.394 C 247.842 304.127,247.539 304.425,247.256 305.055 M221.714 352.200 C 221.717 353.300,221.795 353.703,221.887 353.095 C 221.979 352.486,221.977 351.586,221.882 351.095 C 221.787 350.603,221.711 351.100,221.714 352.200 M158.867 355.426 C 158.817 356.182,158.961 356.800,159.187 356.800 C 159.670 356.800,159.752 354.541,159.280 354.249 C 159.104 354.141,158.918 354.670,158.867 355.426 M159.357 369.200 C 159.357 372.170,159.420 373.385,159.497 371.900 C 159.574 370.415,159.574 367.985,159.497 366.500 C 159.420 365.015,159.357 366.230,159.357 369.200 M227.000 413.600 C 226.864 413.820,227.123 414.000,227.576 414.000 C 228.029 414.000,228.400 413.820,228.400 413.600 C 228.400 413.380,228.141 413.200,227.824 413.200 C 227.507 413.200,227.136 413.380,227.000 413.600 M3.888 423.733 C 3.442 424.866,3.515 425.445,4.038 424.922 C 4.278 424.682,4.408 424.151,4.326 423.742 C 4.182 423.026,4.166 423.026,3.888 423.733 M396.093 430.400 C 396.093 431.170,396.175 431.485,396.276 431.100 C 396.376 430.715,396.376 430.085,396.276 429.700 C 396.175 429.315,396.093 429.630,396.093 430.400 M189.700 433.898 C 191.625 433.971,194.775 433.971,196.700 433.898 C 198.625 433.825,197.050 433.765,193.200 433.765 C 189.350 433.765,187.775 433.825,189.700 433.898 M3.693 440.800 C 3.693 441.570,3.775 441.885,3.876 441.500 C 3.976 441.115,3.976 440.485,3.876 440.100 C 3.775 439.715,3.693 440.030,3.693 440.800 M396.101 443.400 C 396.105 444.280,396.187 444.593,396.283 444.095 C 396.379 443.598,396.375 442.878,396.275 442.495 C 396.175 442.113,396.096 442.520,396.101 443.400 M289.275 451.625 C 289.371 451.914,289.686 452.229,289.975 452.325 C 290.275 452.425,290.425 452.275,290.325 451.975 C 290.229 451.686,289.914 451.371,289.625 451.275 C 289.325 451.175,289.175 451.325,289.275 451.625 " stroke="none" fill="#58ec64" fill-rule="evenodd"></path><path id="path2" d="M114.989 54.200 C 114.989 69.600,115.039 75.842,115.100 68.071 C 115.161 60.300,115.161 47.700,115.100 40.071 C 115.039 32.442,114.989 38.800,114.989 54.200 M273.856 98.278 C 273.405 98.728,273.581 99.200,274.200 99.200 C 274.530 99.200,274.800 99.031,274.800 98.824 C 274.800 98.319,274.175 97.958,273.856 98.278 M57.646 185.500 C 57.682 186.343,57.739 186.413,57.893 185.800 C 58.003 185.360,58.297 184.868,58.546 184.706 C 58.834 184.520,58.744 184.410,58.300 184.406 C 57.790 184.402,57.613 184.699,57.646 185.500 M146.800 289.067 C 146.800 289.507,147.067 289.867,147.394 289.867 C 147.871 289.867,147.893 289.742,147.507 289.233 C 147.243 288.885,146.975 288.525,146.913 288.433 C 146.851 288.342,146.800 288.627,146.800 289.067 M247.256 305.055 C 246.776 306.127,246.786 306.158,247.418 305.539 C 247.789 305.176,248.020 304.660,247.931 304.394 C 247.842 304.127,247.539 304.425,247.256 305.055 M221.714 352.200 C 221.717 353.300,221.795 353.703,221.887 353.095 C 221.979 352.486,221.977 351.586,221.882 351.095 C 221.787 350.603,221.711 351.100,221.714 352.200 M158.867 355.426 C 158.817 356.182,158.961 356.800,159.187 356.800 C 159.670 356.800,159.752 354.541,159.280 354.249 C 159.104 354.141,158.918 354.670,158.867 355.426 M159.357 369.200 C 159.357 372.170,159.420 373.385,159.497 371.900 C 159.574 370.415,159.574 367.985,159.497 366.500 C 159.420 365.015,159.357 366.230,159.357 369.200 M227.000 413.600 C 226.864 413.820,227.123 414.000,227.576 414.000 C 228.029 414.000,228.400 413.820,228.400 413.600 C 228.400 413.380,228.141 413.200,227.824 413.200 C 227.507 413.200,227.136 413.380,227.000 413.600 M3.888 423.733 C 3.442 424.866,3.515 425.445,4.038 424.922 C 4.278 424.682,4.408 424.151,4.326 423.742 C 4.182 423.026,4.166 423.026,3.888 423.733 M396.093 430.400 C 396.093 431.170,396.175 431.485,396.276 431.100 C 396.376 430.715,396.376 430.085,396.276 429.700 C 396.175 429.315,396.093 429.630,396.093 430.400 M189.700 433.898 C 191.625 433.971,194.775 433.971,196.700 433.898 C 198.625 433.825,197.050 433.765,193.200 433.765 C 189.350 433.765,187.775 433.825,189.700 433.898 M3.693 440.800 C 3.693 441.570,3.775 441.885,3.876 441.500 C 3.976 441.115,3.976 440.485,3.876 440.100 C 3.775 439.715,3.693 440.030,3.693 440.800 M396.101 443.400 C 396.105 444.280,396.187 444.593,396.283 444.095 C 396.379 443.598,396.375 442.878,396.275 442.495 C 396.175 442.113,396.096 442.520,396.101 443.400 M289.275 451.625 C 289.371 451.914,289.686 452.229,289.975 452.325 C 290.275 452.425,290.425 452.275,290.325 451.975 C 290.229 451.686,289.914 451.371,289.625 451.275 C 289.325 451.175,289.175 451.325,289.275 451.625 " stroke="none" fill="#58ec64" fill-rule="evenodd"></path><path id="path3" d="M114.989 54.200 C 114.989 69.600,115.039 75.842,115.100 68.071 C 115.161 60.300,115.161 47.700,115.100 40.071 C 115.039 32.442,114.989 38.800,114.989 54.200 M273.856 98.278 C 273.405 98.728,273.581 99.200,274.200 99.200 C 274.530 99.200,274.800 99.031,274.800 98.824 C 274.800 98.319,274.175 97.958,273.856 98.278 M57.646 185.500 C 57.682 186.343,57.739 186.413,57.893 185.800 C 58.003 185.360,58.297 184.868,58.546 184.706 C 58.834 184.520,58.744 184.410,58.300 184.406 C 57.790 184.402,57.613 184.699,57.646 185.500 M146.800 289.067 C 146.800 289.507,147.067 289.867,147.394 289.867 C 147.871 289.867,147.893 289.742,147.507 289.233 C 147.243 288.885,146.975 288.525,146.913 288.433 C 146.851 288.342,146.800 288.627,146.800 289.067 M247.256 305.055 C 246.776 306.127,246.786 306.158,247.418 305.539 C 247.789 305.176,248.020 304.660,247.931 304.394 C 247.842 304.127,247.539 304.425,247.256 305.055 M221.714 352.200 C 221.717 353.300,221.795 353.703,221.887 353.095 C 221.979 352.486,221.977 351.586,221.882 351.095 C 221.787 350.603,221.711 351.100,221.714 352.200 M158.867 355.426 C 158.817 356.182,158.961 356.800,159.187 356.800 C 159.670 356.800,159.752 354.541,159.280 354.249 C 159.104 354.141,158.918 354.670,158.867 355.426 M159.357 369.200 C 159.357 372.170,159.420 373.385,159.497 371.900 C 159.574 370.415,159.574 367.985,159.497 366.500 C 159.420 365.015,159.357 366.230,159.357 369.200 M227.000 413.600 C 226.864 413.820,227.123 414.000,227.576 414.000 C 228.029 414.000,228.400 413.820,228.400 413.600 C 228.400 413.380,228.141 413.200,227.824 413.200 C 227.507 413.200,227.136 413.380,227.000 413.600 M3.888 423.733 C 3.442 424.866,3.515 425.445,4.038 424.922 C 4.278 424.682,4.408 424.151,4.326 423.742 C 4.182 423.026,4.166 423.026,3.888 423.733 M396.093 430.400 C 396.093 431.170,396.175 431.485,396.276 431.100 C 396.376 430.715,396.376 430.085,396.276 429.700 C 396.175 429.315,396.093 429.630,396.093 430.400 M189.700 433.898 C 191.625 433.971,194.775 433.971,196.700 433.898 C 198.625 433.825,197.050 433.765,193.200 433.765 C 189.350 433.765,187.775 433.825,189.700 433.898 M3.693 440.800 C 3.693 441.570,3.775 441.885,3.876 441.500 C 3.976 441.115,3.976 440.485,3.876 440.100 C 3.775 439.715,3.693 440.030,3.693 440.800 M396.101 443.400 C 396.105 444.280,396.187 444.593,396.283 444.095 C 396.379 443.598,396.375 442.878,396.275 442.495 C 396.175 442.113,396.096 442.520,396.101 443.400 M289.275 451.625 C 289.371 451.914,289.686 452.229,289.975 452.325 C 290.275 452.425,290.425 452.275,290.325 451.975 C 290.229 451.686,289.914 451.371,289.625 451.275 C 289.325 451.175,289.175 451.325,289.275 451.625 " stroke="none" fill="#58ec64" fill-rule="evenodd"></path><path id="path4" d="M114.989 54.200 C 114.989 69.600,115.039 75.842,115.100 68.071 C 115.161 60.300,115.161 47.700,115.100 40.071 C 115.039 32.442,114.989 38.800,114.989 54.200 M273.856 98.278 C 273.405 98.728,273.581 99.200,274.200 99.200 C 274.530 99.200,274.800 99.031,274.800 98.824 C 274.800 98.319,274.175 97.958,273.856 98.278 M57.646 185.500 C 57.682 186.343,57.739 186.413,57.893 185.800 C 58.003 185.360,58.297 184.868,58.546 184.706 C 58.834 184.520,58.744 184.410,58.300 184.406 C 57.790 184.402,57.613 184.699,57.646 185.500 M146.800 289.067 C 146.800 289.507,147.067 289.867,147.394 289.867 C 147.871 289.867,147.893 289.742,147.507 289.233 C 147.243 288.885,146.975 288.525,146.913 288.433 C 146.851 288.342,146.800 288.627,146.800 289.067 M247.256 305.055 C 246.776 306.127,246.786 306.158,247.418 305.539 C 247.789 305.176,248.020 304.660,247.931 304.394 C 247.842 304.127,247.539 304.425,247.256 305.055 M221.714 352.200 C 221.717 353.300,221.795 353.703,221.887 353.095 C 221.979 352.486,221.977 351.586,221.882 351.095 C 221.787 350.603,221.711 351.100,221.714 352.200 M158.867 355.426 C 158.817 356.182,158.961 356.800,159.187 356.800 C 159.670 356.800,159.752 354.541,159.280 354.249 C 159.104 354.141,158.918 354.670,158.867 355.426 M159.357 369.200 C 159.357 372.170,159.420 373.385,159.497 371.900 C 159.574 370.415,159.574 367.985,159.497 366.500 C 159.420 365.015,159.357 366.230,159.357 369.200 M227.000 413.600 C 226.864 413.820,227.123 414.000,227.576 414.000 C 228.029 414.000,228.400 413.820,228.400 413.600 C 228.400 413.380,228.141 413.200,227.824 413.200 C 227.507 413.200,227.136 413.380,227.000 413.600 M3.888 423.733 C 3.442 424.866,3.515 425.445,4.038 424.922 C 4.278 424.682,4.408 424.151,4.326 423.742 C 4.182 423.026,4.166 423.026,3.888 423.733 M396.093 430.400 C 396.093 431.170,396.175 431.485,396.276 431.100 C 396.376 430.715,396.376 430.085,396.276 429.700 C 396.175 429.315,396.093 429.630,396.093 430.400 M189.700 433.898 C 191.625 433.971,194.775 433.971,196.700 433.898 C 198.625 433.825,197.050 433.765,193.200 433.765 C 189.350 433.765,187.775 433.825,189.700 433.898 M3.693 440.800 C 3.693 441.570,3.775 441.885,3.876 441.500 C 3.976 441.115,3.976 440.485,3.876 440.100 C 3.775 439.715,3.693 440.030,3.693 440.800 M396.101 443.400 C 396.105 444.280,396.187 444.593,396.283 444.095 C 396.379 443.598,396.375 442.878,396.275 442.495 C 396.175 442.113,396.096 442.520,396.101 443.400 M289.275 451.625 C 289.371 451.914,289.686 452.229,289.975 452.325 C 290.275 452.425,290.425 452.275,290.325 451.975 C 290.229 451.686,289.914 451.371,289.625 451.275 C 289.325 451.175,289.175 451.325,289.275 451.625 " stroke="none" fill="#58ec64" fill-rule="evenodd"></path></g></svg>