<svg id="svg" version="1.1" xmlns="http://www.w3.org/2000/svg" xmlns:xlink="http://www.w3.org/1999/xlink" width="400" height="540.3990024937656" viewBox="0, 0, 400,540.3990024937656"><g id="svgg"><path id="path0" d="M317.830 148.379 C 318.366 148.928,318.861 149.377,318.929 149.377 C 318.998 149.377,318.616 148.928,318.080 148.379 C 317.544 147.830,317.050 147.382,316.981 147.382 C 316.912 147.382,317.295 147.830,317.830 148.379 M330.549 166.584 C 330.761 166.995,330.992 167.332,331.060 167.332 C 331.129 167.332,331.011 166.995,330.798 166.584 C 330.585 166.172,330.355 165.835,330.286 165.835 C 330.218 165.835,330.336 166.172,330.549 166.584 M197.733 168.267 L 63.920 168.330 63.628 168.972 C 63.467 169.325,63.399 169.717,63.478 169.844 C 63.556 169.971,63.513 170.075,63.381 170.075 C 63.083 170.075,61.811 173.308,61.992 173.602 C 62.065 173.719,62.025 173.815,61.904 173.815 C 61.705 173.815,60.338 177.775,60.010 179.302 C 59.194 183.102,58.677 203.189,58.835 224.999 L 58.853 227.429 88.217 227.494 L 117.581 227.558 88.217 227.619 C 68.848 227.660,58.853 227.766,58.853 227.930 C 58.853 228.095,68.828 228.180,88.279 228.180 C 104.464 228.180,117.706 228.090,117.706 227.980 C 117.706 227.604,117.083 226.438,116.881 226.436 C 116.770 226.435,116.748 226.322,116.833 226.185 C 116.918 226.047,116.862 225.935,116.708 225.935 C 116.555 225.935,116.499 225.823,116.584 225.686 C 116.668 225.549,116.638 225.436,116.516 225.436 C 116.294 225.436,115.193 223.286,115.176 222.818 C 115.171 222.681,115.013 222.288,114.825 221.945 C 112.655 217.991,113.142 214.290,116.238 211.193 C 121.380 206.051,127.216 207.001,132.058 213.768 C 132.872 214.905,133.622 215.873,133.726 215.919 C 133.830 215.964,133.915 216.161,133.915 216.355 C 133.915 216.549,134.027 216.708,134.165 216.708 C 134.302 216.708,134.414 216.819,134.414 216.955 C 134.414 217.091,134.944 218.017,135.592 219.012 C 137.034 221.230,137.336 221.715,137.570 222.195 C 137.670 222.400,137.899 222.717,138.078 222.898 C 138.257 223.079,138.404 223.388,138.404 223.584 C 138.404 223.780,138.523 223.940,138.668 223.940 C 138.813 223.940,138.863 224.052,138.778 224.190 C 138.693 224.327,138.741 224.439,138.883 224.439 C 139.026 224.439,139.213 224.719,139.299 225.062 C 139.385 225.405,139.562 225.686,139.693 225.686 C 139.823 225.686,139.860 225.798,139.776 225.935 C 139.691 226.072,139.738 226.185,139.881 226.185 C 140.023 226.185,140.211 226.466,140.297 226.809 L 140.454 227.433 199.377 227.430 L 258.301 227.427 258.457 226.806 C 258.543 226.464,258.730 226.185,258.872 226.185 C 259.015 226.185,259.062 226.072,258.978 225.935 C 258.893 225.798,258.930 225.686,259.060 225.686 C 259.191 225.686,259.368 225.405,259.454 225.062 C 259.540 224.719,259.727 224.439,259.870 224.439 C 260.012 224.439,260.060 224.327,259.975 224.190 C 259.890 224.052,259.940 223.940,260.085 223.940 C 260.230 223.940,260.349 223.780,260.349 223.584 C 260.349 223.388,260.496 223.079,260.675 222.898 C 260.854 222.717,261.083 222.400,261.183 222.195 C 262.176 220.164,267.462 212.590,268.935 211.088 C 273.889 206.035,281.559 207.493,284.815 214.106 C 285.996 216.506,284.448 223.753,282.387 225.463 C 282.215 225.605,282.143 225.901,282.227 226.119 C 282.328 226.382,282.281 226.455,282.087 226.335 C 281.927 226.236,281.787 226.246,281.776 226.357 C 281.766 226.468,281.720 226.755,281.674 226.995 C 281.595 227.408,283.051 227.435,309.062 227.492 L 336.534 227.552 308.811 227.679 C 293.564 227.748,281.005 227.890,280.902 227.993 C 280.799 228.095,293.274 228.207,308.624 228.240 L 336.534 228.301 308.728 228.429 L 280.923 228.557 308.830 228.618 L 336.738 228.678 336.578 212.781 C 336.375 192.490,335.991 184.522,334.909 178.167 C 334.411 175.244,333.119 171.015,332.679 170.868 C 332.534 170.820,332.477 170.682,332.551 170.561 C 332.626 170.441,332.430 169.861,332.116 169.273 L 331.546 168.204 197.733 168.267 M141.147 227.930 C 141.147 228.096,160.723 228.180,199.377 228.180 C 238.030 228.180,257.606 228.096,257.606 227.930 C 257.606 227.765,238.030 227.681,199.377 227.681 C 160.723 227.681,141.147 227.765,141.147 227.930 M88.404 228.429 L 58.728 228.557 88.327 228.617 C 107.856 228.658,117.978 228.593,118.080 228.429 C 118.165 228.292,118.199 228.207,118.157 228.240 C 118.114 228.274,104.726 228.359,88.404 228.429 M141.400 228.741 C 141.402 228.912,141.522 229.221,141.666 229.426 C 141.871 229.719,141.894 229.679,141.770 229.239 L 141.612 228.678 199.377 228.678 L 257.141 228.678 256.983 229.239 C 256.859 229.679,256.882 229.719,257.087 229.426 C 257.231 229.221,257.351 228.912,257.353 228.741 C 257.356 228.492,245.596 228.429,199.377 228.429 C 153.157 228.429,141.397 228.492,141.400 228.741 " stroke="none" fill="#dc257c" fill-rule="evenodd"></path><path id="path1" d="M58.700 218.579 C 58.701 220.362,58.741 221.058,58.789 220.127 C 58.837 219.195,58.836 217.736,58.788 216.885 C 58.739 216.033,58.700 216.796,58.700 218.579 M58.522 251.127 C 58.408 266.834,58.396 281.170,58.494 282.985 L 58.674 286.284 101.968 286.280 C 128.767 286.278,145.122 286.188,144.895 286.045 C 144.693 285.917,144.600 285.741,144.687 285.653 C 144.824 285.517,144.238 283.480,143.722 282.294 C 143.633 282.089,143.536 281.836,143.507 281.733 C 143.478 281.630,143.431 281.518,143.404 281.484 C 143.376 281.450,143.317 281.235,143.273 281.008 C 143.133 280.282,140.642 273.578,139.010 269.534 C 134.170 257.534,127.527 244.236,120.739 232.955 C 119.551 230.980,118.410 229.070,118.204 228.710 L 117.830 228.055 88.342 228.118 C 68.807 228.160,58.853 228.097,58.853 227.932 C 58.853 227.768,68.850 227.661,88.217 227.618 L 117.581 227.554 88.226 227.493 L 58.871 227.431 58.800 225.000 C 58.760 223.663,58.635 235.420,58.522 251.127 M281.330 227.369 C 281.108 227.784,282.472 227.799,308.815 227.681 L 336.534 227.556 309.026 227.493 C 290.848 227.451,281.570 227.345,281.671 227.181 C 281.756 227.044,281.766 226.933,281.694 226.933 C 281.622 226.933,281.459 227.129,281.330 227.369 M199.334 227.431 C 140.775 227.556,140.689 227.557,140.980 228.055 C 141.270 228.551,141.535 228.554,199.377 228.554 L 257.481 228.554 257.813 227.970 C 257.995 227.650,258.107 227.369,258.062 227.347 C 258.017 227.325,231.590 227.363,199.334 227.431 M257.606 227.930 C 257.606 228.096,238.030 228.180,199.377 228.180 C 160.723 228.180,141.147 228.096,141.147 227.930 C 141.147 227.765,160.723 227.681,199.377 227.681 C 238.030 227.681,257.606 227.765,257.606 227.930 M280.798 228.554 C 280.798 228.759,280.679 228.928,280.534 228.928 C 280.389 228.928,280.333 229.030,280.411 229.156 C 280.488 229.281,280.456 229.421,280.340 229.467 C 279.774 229.691,272.998 241.761,268.954 249.751 C 263.776 259.979,256.437 277.067,255.726 280.549 C 255.684 280.754,255.627 280.951,255.599 280.985 C 255.571 281.019,255.525 281.132,255.496 281.234 C 255.467 281.337,255.370 281.590,255.280 281.796 C 254.992 282.453,253.865 285.865,253.865 286.079 C 253.865 286.192,272.494 286.284,295.262 286.284 L 336.658 286.284 336.658 257.481 L 336.658 228.678 308.791 228.618 L 280.923 228.557 308.728 228.429 L 336.534 228.301 308.666 228.240 C 284.034 228.187,280.798 228.223,280.798 228.554 M103.324 228.616 C 95.208 228.652,81.853 228.652,73.648 228.616 C 65.442 228.579,72.082 228.550,88.404 228.550 C 104.726 228.550,111.439 228.579,103.324 228.616 M141.782 229.239 C 141.875 229.548,142.898 231.571,144.054 233.735 C 152.584 249.696,160.586 268.246,164.354 280.798 C 164.663 281.827,165.025 282.740,165.158 282.827 C 165.291 282.915,165.336 283.091,165.257 283.219 C 165.178 283.347,165.275 283.764,165.473 284.146 C 165.671 284.528,165.782 284.922,165.720 285.023 C 165.658 285.123,165.777 285.448,165.985 285.745 L 166.362 286.284 199.523 286.284 C 234.636 286.284,232.840 286.340,233.006 285.244 C 233.034 285.062,233.149 284.765,233.261 284.584 C 233.374 284.404,233.404 284.193,233.327 284.116 C 233.250 284.040,233.354 283.654,233.557 283.260 C 233.761 282.866,233.855 282.544,233.766 282.544 C 233.677 282.544,233.759 282.358,233.947 282.131 C 234.135 281.904,234.276 281.652,234.259 281.570 C 234.221 281.387,234.111 281.741,235.739 276.808 C 240.073 263.680,246.363 249.395,254.736 233.666 C 255.867 231.540,256.872 229.548,256.967 229.239 L 257.141 228.678 199.377 228.678 L 141.612 228.678 141.782 229.239 " stroke="none" fill="#d42b84" fill-rule="evenodd"></path><path id="path2" d="M58.407 300.592 C 58.373 310.587,58.301 318.836,58.247 318.924 C 58.193 319.012,58.117 334.361,58.079 353.033 L 58.010 386.982 62.646 391.932 C 73.062 403.056,78.279 410.620,85.151 424.564 C 88.242 430.835,90.111 433.915,90.826 433.915 C 91.329 433.915,93.826 432.894,100.249 430.061 C 124.759 419.253,146.838 413.696,173.566 411.607 C 214.935 408.374,252.505 414.300,303.045 432.031 C 310.870 434.776,310.076 435.194,312.972 426.796 C 317.845 412.666,322.259 405.023,332.771 392.519 L 336.650 387.905 336.654 337.096 L 336.658 286.287 295.143 286.223 L 253.628 286.160 253.470 286.908 C 253.383 287.319,252.932 288.813,252.467 290.227 C 252.003 291.641,251.561 293.146,251.486 293.572 C 251.411 293.998,251.289 294.446,251.214 294.567 C 250.893 295.087,248.772 303.343,247.512 308.978 C 243.609 326.431,241.479 343.080,240.271 365.586 C 239.564 378.759,239.400 379.574,236.963 382.099 C 232.695 386.519,227.805 386.586,223.325 382.283 C 220.599 379.665,220.596 379.655,220.490 369.825 C 220.238 346.377,223.662 320.280,230.307 295.012 C 230.982 292.444,231.233 291.511,231.447 290.773 C 231.984 288.914,232.205 288.126,232.400 287.374 C 232.511 286.944,232.663 286.495,232.736 286.376 C 232.812 286.254,218.401 286.188,199.692 286.224 C 175.991 286.270,166.421 286.210,166.186 286.016 C 165.839 285.728,165.960 286.344,166.541 287.817 C 166.684 288.180,166.733 288.545,166.651 288.628 C 166.568 288.710,166.613 288.778,166.750 288.778 C 166.887 288.778,167.005 288.918,167.012 289.090 C 167.029 289.517,167.231 290.397,167.685 292.020 C 174.732 317.215,178.875 347.488,178.493 370.994 C 178.357 379.344,178.311 379.534,175.810 382.080 C 171.175 386.798,165.233 386.484,161.199 381.308 C 159.655 379.327,159.335 377.383,158.731 366.334 C 157.343 340.907,154.623 321.728,149.590 301.870 C 148.426 297.277,148.091 296.067,147.367 293.839 C 147.225 293.399,147.060 292.793,147.003 292.493 C 146.945 292.193,146.759 291.543,146.589 291.048 C 146.419 290.554,146.275 290.094,146.269 290.025 C 146.263 289.956,145.980 289.087,145.641 288.092 L 145.024 286.284 101.824 286.284 L 58.624 286.284 58.547 284.352 C 58.504 283.289,58.441 290.597,58.407 300.592 M368.092 398.892 C 348.518 403.136,331.114 426.582,329.186 451.303 C 328.742 457.005,326.674 460.460,322.551 462.389 C 318.869 464.112,318.632 464.054,300.499 457.037 C 252.625 438.510,206.119 431.857,163.342 437.417 C 141.581 440.245,123.577 445.721,102.131 456.036 C 90.520 461.620,85.655 463.501,83.418 463.270 C 79.195 462.834,76.575 459.584,72.616 449.875 C 62.296 424.560,50.934 409.550,36.658 402.371 C 17.282 392.627,0.810 414.390,4.856 444.389 C 6.203 454.370,8.391 464.133,17.826 502.244 C 24.526 529.308,25.310 532.554,25.624 534.539 L 25.822 535.786 199.524 535.848 L 373.225 535.911 373.675 533.978 C 374.251 531.503,376.740 522.721,380.796 508.853 C 393.944 463.898,395.120 457.976,395.131 436.658 C 395.137 423.563,395.108 423.291,392.971 416.720 C 388.532 403.073,379.305 396.461,368.092 398.892 " stroke="none" fill="#cc2c8a" fill-rule="evenodd"></path><path id="path3" d="M158.105 4.233 C 138.320 4.478,134.789 4.713,131.421 6.006 C 126.549 7.877,122.830 11.065,118.890 16.749 L 116.708 19.897 116.708 53.464 L 116.708 87.031 118.501 89.962 C 122.334 96.227,123.748 97.582,130.254 101.224 L 133.451 103.013 200.079 102.736 L 266.708 102.459 269.576 100.553 C 273.303 98.076,276.825 94.585,279.318 90.898 L 281.172 88.155 281.370 68.953 C 281.884 19.143,281.779 18.168,275.180 11.571 C 267.665 4.059,269.221 4.242,211.721 4.126 C 190.393 4.083,166.266 4.131,158.105 4.233 " stroke="none" fill="#e9166f" fill-rule="evenodd"></path><path id="path4" d="M144.015 129.087 C 132.991 129.200,116.951 129.673,115.212 129.935 C 114.320 130.070,113.142 130.244,112.594 130.321 C 110.033 130.680,103.446 132.423,101.372 133.290 C 100.960 133.462,99.726 133.963,98.628 134.403 C 84.680 140.000,72.561 151.439,65.346 165.817 L 64.085 168.329 197.753 168.329 C 271.271 168.329,331.421 168.283,331.421 168.226 C 331.421 168.024,327.609 160.988,326.625 159.374 C 320.307 149.011,309.168 139.561,297.631 134.775 C 296.397 134.263,295.050 133.703,294.638 133.531 C 293.722 133.147,289.306 131.737,288.495 131.569 C 288.170 131.502,287.653 131.385,287.344 131.310 C 285.128 130.767,283.709 130.465,282.658 130.312 C 282.104 130.232,281.375 130.107,281.037 130.036 C 279.886 129.791,274.198 129.455,268.454 129.291 C 262.743 129.129,156.838 128.955,144.015 129.087 " stroke="none" fill="#e4247c" fill-rule="evenodd"></path></g></svg>